<?xml version="1.0" encoding="utf-8"?>
<!-- Generator: Adobe Illustrator 26.5.0, SVG Export Plug-In . SVG Version: 6.00 Build 0)  -->
<svg version="1.1" id="Layer_1" xmlns="http://www.w3.org/2000/svg" xmlns:xlink="http://www.w3.org/1999/xlink" x="0px" y="0px"
	 viewBox="0 0 37 37" style="enable-background:new 0 0 37 37;" xml:space="preserve">
<style type="text/css">
	.st0{fill:#D4A8CE;}
</style>
<path class="st0" d="M27.8,36.6H9.2c-4.8,0-8.8-3.9-8.8-8.8V9.2c0-4.8,3.9-8.8,8.8-8.8h18.6c4.8,0,8.8,3.9,8.8,8.8v18.6
	C36.6,32.7,32.7,36.6,27.8,36.6z"/>
<path d="M25.8,17.8c-0.4,0.1-0.7,0.3-1.1,0.4c-1.7,0.7-3.5,1.4-5.2,2.1c-0.7,0.3-1.3,0.3-2,0c-2.5-1-5.1-2.1-7.6-3.1
	c-1.3-0.5-2.7-1.1-4-1.6c-0.4-0.2-0.7-0.4-0.8-0.8c-0.1-0.5,0-1,0.5-1.2c0.4-0.2,0.8-0.4,1.2-0.5c3.6-1.5,7.2-2.9,10.8-4.4
	c0.7-0.3,1.3-0.3,2,0c3.9,1.6,7.7,3.1,11.6,4.7c0.2,0.1,0.3,0.1,0.4,0.2c0.6,0.4,0.6,1.3,0,1.8c-0.2,0.2-0.5,0.3-0.8,0.4
	c-0.6,0.3-1.2,0.5-1.9,0.7c-0.1,0.1-0.2,0.1-0.2,0.3c0,0.8,0,1.6,0,2.5c0,1.2,0,2.3,0,3.5c0,0.1,0,0.2,0.2,0.3
	c0.6,0.3,0.8,1,0.5,1.6c-0.1,0.2-0.1,0.4,0,0.6c0.3,0.6,0.8,0.9,1.4,1.2c0.1,0,0.2,0.1,0.2,0.1c0.3,0.2,0.3,0.5,0.1,0.7
	c-0.2,0.2-0.4,0.4-0.6,0.6c-0.2,0.2-0.3,0.3-0.5,0.5c-0.2,0.2-0.5,0.3-0.8,0.2c-0.9-0.3-1.4-0.9-1.7-1.7c-0.1-0.4-0.2-0.9-0.2-1.3
	c0-0.3-0.1-0.6-0.3-0.9c-0.4-0.5-0.2-1.2,0.3-1.6c0.2-0.1,0.2-0.3,0.2-0.5c0-1.8,0-3.5,0-5.3c0-0.1,0-0.1,0-0.2
	c-0.3,0.1-0.6,0.3-0.9,0.4c0,0,0,0.1,0,0.1c0,1,0,2,0,3.1c0,0.5,0,1,0,1.6c0,0.7-0.3,1.3-0.8,1.7c-0.7,0.6-1.4,0.9-2.3,1.2
	c-1,0.4-2,0.6-3.1,0.7c-1.1,0.1-2.2,0.2-3.4,0.1c-1.2-0.1-2.4-0.3-3.6-0.7c-1-0.3-1.9-0.8-2.7-1.5c-0.5-0.4-0.7-1-0.6-1.6
	c0-0.6,0-1.3,0-1.9c0-0.4,0-0.9,0-1.3c0-0.3,0.2-0.5,0.4-0.5c0.3,0,0.5,0.1,0.5,0.4c0,0.1,0,0.1,0,0.2c0,1.1,0,2.1,0,3.2
	c0,0.4,0.2,0.6,0.4,0.9c0.5,0.4,1,0.7,1.6,0.9c1.1,0.4,2.2,0.7,3.4,0.8c0.6,0.1,1.2,0.1,1.9,0.1c1.8,0,3.6-0.3,5.3-0.9
	c0.5-0.2,1-0.5,1.5-0.8c0.4-0.3,0.6-0.7,0.5-1.1c0-0.8,0-1.6,0-2.3C25.8,19.1,25.8,18.4,25.8,17.8z M18.5,19.6
	c0.2-0.1,0.4-0.1,0.6-0.2c3.1-1.3,6.3-2.6,9.4-3.8c0.8-0.3,1.5-0.6,2.3-0.9c0.1,0,0.2-0.1,0.2-0.2c0-0.1-0.1-0.1-0.1-0.2
	c0,0-0.1,0-0.1-0.1c-3.3-1.4-6.7-2.7-10-4.1c-0.7-0.3-1.4-0.5-2.1-0.8c-0.1,0-0.1,0-0.2,0c-0.2,0.1-0.4,0.1-0.6,0.2
	c-2.5,1-5.1,2.1-7.6,3.1c-1.3,0.5-2.6,1.1-3.9,1.6c-0.1,0-0.1,0.1-0.2,0.1c-0.1,0.1-0.1,0.1,0,0.2c0.1,0.1,0.2,0.1,0.3,0.2
	c3.8,1.6,7.7,3.1,11.5,4.7C18.1,19.5,18.3,19.5,18.5,19.6z M29.9,27c-0.7-0.4-1.3-1-1.6-1.7c0,0.5,0,0.9,0.2,1.4
	c0.1,0.3,0.4,0.6,0.7,0.8c0.1,0,0.2,0,0.2,0C29.6,27.3,29.8,27.2,29.9,27z M27.9,24c0,0.2,0.1,0.3,0.3,0.3c0.1,0,0.3-0.1,0.3-0.3
	c0-0.2-0.1-0.3-0.3-0.3C28,23.7,27.9,23.8,27.9,24z"/>
</svg>
