<?xml version="1.0" encoding="utf-8"?>
<!-- Generator: Adobe Illustrator 26.5.0, SVG Export Plug-In . SVG Version: 6.00 Build 0)  -->
<svg version="1.1" id="Layer_1" xmlns="http://www.w3.org/2000/svg" xmlns:xlink="http://www.w3.org/1999/xlink" x="0px" y="0px"
	 viewBox="0 0 18 18" style="enable-background:new 0 0 18 18;" xml:space="preserve">
<style type="text/css">
	.st0{fill-rule:evenodd;clip-rule:evenodd;fill:#179CF0;}
</style>
<path class="st0" d="M6.2,2.2c0.4-0.4,0.8-0.7,1.3-1C7.9,1,8.5,0.9,9,0.9c1.1,0,2.1,0.5,2.8,1.3c0.5,0,1.1,0,1.6,0.2
	c0.5,0.2,1,0.5,1.3,0.9c0.4,0.4,0.7,0.8,0.9,1.3c0.2,0.5,0.3,1,0.2,1.6c0.4,0.4,0.7,0.8,1,1.3c0.2,0.5,0.3,1,0.3,1.6
	c0,0.5-0.1,1.1-0.3,1.6c-0.2,0.5-0.5,0.9-1,1.3c0,0.5,0,1.1-0.2,1.6c-0.2,0.5-0.5,1-0.9,1.3c-0.4,0.4-0.8,0.7-1.3,0.9
	c-0.5,0.2-1,0.3-1.6,0.2c-0.4,0.4-0.8,0.7-1.3,1c-0.5,0.2-1,0.3-1.6,0.3c-0.5,0-1.1-0.1-1.6-0.3c-0.5-0.2-0.9-0.5-1.3-1
	c-0.5,0-1.1,0-1.6-0.2c-0.5-0.2-1-0.5-1.3-0.9c-0.4-0.4-0.7-0.8-0.9-1.3c-0.2-0.5-0.3-1-0.2-1.6c-0.4-0.4-0.7-0.8-1-1.3
	C1,10.1,0.9,9.5,0.9,9c0-1.1,0.5-2.1,1.3-2.8c0-0.5,0-1.1,0.2-1.6c0.2-0.5,0.5-1,0.9-1.3c0.4-0.4,0.8-0.7,1.3-0.9
	C5.1,2.2,5.6,2.1,6.2,2.2z M12,7.5c0.1-0.1,0.1-0.1,0.1-0.2c0-0.1,0-0.2,0-0.2c0-0.1,0-0.2-0.1-0.2c0-0.1-0.1-0.1-0.2-0.2
	c-0.1,0-0.1-0.1-0.2-0.1c-0.1,0-0.2,0-0.2,0c-0.1,0-0.2,0-0.2,0.1c-0.1,0-0.1,0.1-0.2,0.2l-2.7,3.8L6.9,9.2C6.8,9.1,6.7,9,6.5,9
	S6.2,9.1,6.1,9.2C6,9.3,5.9,9.5,5.9,9.6c0,0.2,0.1,0.3,0.2,0.4l1.9,1.9C8,12,8.1,12.1,8.2,12.1c0.1,0,0.2,0,0.3,0
	c0.1,0,0.2,0,0.3-0.1c0.1,0,0.1-0.1,0.2-0.2L12,7.5z"/>
</svg>
