<?xml version="1.0" encoding="UTF-8"?>
<svg id="Layer_1" data-name="Layer 1" xmlns="http://www.w3.org/2000/svg" viewBox="0 0 3503.21 3068.37">
  <defs>
    <style>
      .cls-1 {
        fill: #f0f0f0;
      }

      .cls-2, .cls-3, .cls-4, .cls-5, .cls-6, .cls-7, .cls-8 {
        fill: #fff;
      }

      .cls-3 {
        opacity: .8;
      }

      .cls-3, .cls-4, .cls-9, .cls-5, .cls-10, .cls-6, .cls-7, .cls-8, .cls-11 {
        isolation: isolate;
      }

      .cls-12 {
        fill: #fafafa;
      }

      .cls-13 {
        fill: #a24e3f;
      }

      .cls-14 {
        fill: #f5f5f5;
      }

      .cls-15 {
        fill: #e0e0e0;
      }

      .cls-4 {
        opacity: .5;
      }

      .cls-16, .cls-7 {
        opacity: .4;
      }

      .cls-17, .cls-11 {
        fill: #bb90e1;
      }

      .cls-18 {
        fill: #e6e6e6;
      }

      .cls-9, .cls-19 {
        opacity: .3;
      }

      .cls-5 {
        opacity: .6;
      }

      .cls-10, .cls-20, .cls-8, .cls-11 {
        opacity: .2;
      }

      .cls-6 {
        opacity: .7;
      }

      .cls-21 {
        fill: #ebebeb;
      }

      .cls-22 {
        fill: #e4897b;
      }

      .cls-23 {
        fill: #263238;
      }
    </style>
  </defs>
  <g id="freepik--background-complete--inject-26">
    <g>
      <rect class="cls-15" x="2170.29" y="249.72" width="720.4" height="1006.63" transform="translate(1125.09 2988.05) rotate(-74.41)"/>
      <path class="cls-12" d="M2434.55,1096.83l197.31-707.15s135.66-8.84,466.01,83.37l-209.37,750.44-453.95-126.67h0Z"/>
      <path class="cls-1" d="M2434.55,1096.83l197.31-707.15s-111.47-77.76-441.82-169.97l-209.37,750.44,453.95,126.67h-.07Z"/>
      <path class="cls-1" d="M2646.85,472.6c-3.22-.97-5.17-4.27-4.64-7.57,.37-3.82,3.67-6.59,7.49-6.37,128.84,16.11,256.34,41.65,381.51,76.26,3.67,1.42,5.54,5.47,4.12,9.21-1.2,3.22-4.57,5.09-7.94,4.49-124.5-34.46-251.32-59.78-379.49-75.81-.37,0-.67-.15-1.05-.22h0Z"/>
      <path class="cls-1" d="M2632.69,523.32c-3.3-1.05-5.24-4.34-4.64-7.72,.45-3.75,3.82-6.44,7.57-6.14,1.95,.22,197.16,27.49,380.69,78.73,3.67,1.5,5.32,5.69,3.82,9.36-1.27,3-4.42,4.79-7.64,4.27-182.63-50.94-377.09-78.13-379.04-78.36-.3,0-.52,0-.82-.07l.07-.07Z"/>
      <path class="cls-1" d="M2618.53,574.18c-3.37-1.05-5.32-4.49-4.57-7.94,.52-3.75,3.97-6.37,7.79-5.92,2.17,.3,214.69,35.13,379.79,81.2,3.67,1.5,5.32,5.69,3.82,9.36-1.27,3-4.42,4.79-7.64,4.27-164.43-45.92-376.35-80.6-378.44-80.98h-.75Z"/>
      <path class="cls-1" d="M2604.3,624.97c-3.37-1.05-5.39-4.57-4.57-8.02,.6-3.75,4.12-6.29,7.87-5.77,2.32,.45,232.22,42.85,378.97,83.75,3.67,1.5,5.32,5.69,3.82,9.36-1.27,3-4.42,4.79-7.64,4.27-146.22-40.83-375.6-83.07-377.84-83.52h-.6v-.07Z"/>
      <path class="cls-1" d="M2590.14,675.76c-3.45-1.12-5.39-4.64-4.57-8.17,.6-3.75,4.19-6.29,7.94-5.69,2.47,.52,249.82,50.49,378.14,86.3,3.67,1.42,5.54,5.47,4.12,9.21-1.2,3.22-4.57,5.09-7.94,4.49-127.95-35.73-374.77-85.55-377.32-86.07h-.45l.07-.07Z"/>
      <path class="cls-1" d="M2575.98,726.55c-3.45-1.12-5.47-4.72-4.57-8.24,.75-3.75,4.27-6.22,8.02-5.54,2.62,.52,267.35,58.13,377.32,88.84,3.67,1.42,5.54,5.47,4.12,9.21-1.2,3.22-4.57,5.09-7.94,4.49-109.67-30.64-374.02-88.09-376.65-88.62h-.37l.07-.15Z"/>
      <path class="cls-1" d="M2561.82,777.41c-3.67-1.42-5.47-5.62-4.05-9.29,1.2-3.07,4.34-4.87,7.57-4.49,2.77,.6,284.88,65.77,376.57,91.31,3.67,1.42,5.54,5.47,4.12,9.21-1.2,3.22-4.57,5.09-7.94,4.49-91.39-25.47-373.2-90.57-376.05-91.16h-.3l.08-.07Z"/>
      <path class="cls-1" d="M2547.67,828.2c-3.67-1.5-5.47-5.62-3.97-9.29,1.2-3,4.34-4.87,7.57-4.42,3,.82,302.41,73.41,375.75,93.86,3.67,1.42,5.54,5.47,4.12,9.21-1.2,3.22-4.57,5.09-7.94,4.49-73.11-20.38-372.38-93.04-375.37-93.71h-.22l.07-.15Z"/>
      <path class="cls-1" d="M2533.43,878.99c-3.67-1.35-5.62-5.47-4.27-9.14,1.2-3.22,4.49-5.17,7.94-4.57,3.15,.9,320.01,81.05,375,96.41,3.67,1.5,5.32,5.69,3.82,9.36-1.27,3-4.42,4.79-7.64,4.27-54.83-15.28-371.55-95.51-374.77-96.33h-.07Z"/>
      <path class="cls-1" d="M2519.27,929.78c-3.67-1.42-5.54-5.47-4.12-9.21,1.2-3.22,4.57-5.09,7.94-4.49,3.37,.97,337.62,88.69,374.25,98.88,3.67,1.5,5.32,5.69,3.82,9.36-1.27,3-4.42,4.79-7.64,4.27-36.56-10.19-370.73-97.98-374.1-98.88h-.15v.07Z"/>
      <path class="cls-1" d="M2505.12,980.57c-3.67-1.5-5.32-5.69-3.82-9.36,1.27-3,4.42-4.79,7.64-4.27,3.52,.97,355.15,96.33,373.5,101.5,3.67,1.5,5.32,5.69,3.82,9.36-1.27,3-4.42,4.79-7.64,4.27-18.28-5.09-369.9-100.45-373.42-101.43h-.07v-.07Z"/>
      <path class="cls-1" d="M2863.71,1135.4l-372.75-103.97c-3.67-1.5-5.32-5.69-3.82-9.36,1.27-3,4.42-4.79,7.64-4.27l372.75,103.97c3.67,1.5,5.32,5.69,3.82,9.36-1.27,3-4.42,4.79-7.64,4.27Z"/>
      <path class="cls-18" d="M2576.21,452.83c3.3,.82,6.67-.97,7.87-4.05,1.65-3.45,.3-7.57-3.15-9.29-118.58-52.89-240.91-97.08-365.86-132.29-3.9-.75-7.57,1.87-8.31,5.69-.6,3.37,1.27,6.74,4.49,7.94,124.35,34.98,246,78.95,363.91,131.62,.3,.15,.67,.22,1.05,.37Z"/>
      <path class="cls-18" d="M2561.97,503.62c3.37,.82,6.74-.97,7.94-4.19,1.57-3.45,.07-7.49-3.3-9.21-1.8-.82-182.93-78.58-366.38-129.74-3.9-.6-7.57,2.1-8.09,6.07-.45,3.22,1.27,6.37,4.27,7.64,182.63,50.94,363.09,128.39,364.88,129.14,.22,.15,.45,.22,.75,.3h-.07Z"/>
      <path class="cls-18" d="M2547.82,554.48c3.45,.82,6.89-1.05,8.02-4.42,1.5-3.52-.07-7.49-3.6-9.06-2.02-.82-201.88-81.05-366.98-127.12-3.9-.6-7.57,2.1-8.09,6.07-.45,3.22,1.27,6.37,4.27,7.64,164.43,45.92,363.76,125.85,365.71,126.67l.6,.3,.07-.07Z"/>
      <path class="cls-18" d="M2533.66,605.27c3.45,.82,6.97-1.12,8.09-4.49,1.42-3.52-.22-7.57-3.75-8.99-2.17-.82-220.83-83.6-367.58-124.57-3.9-.6-7.57,2.1-8.09,6.07-.45,3.22,1.27,6.37,4.27,7.64,146.22,40.83,364.36,123.38,366.53,124.2l.52,.22v-.07Z"/>
      <path class="cls-18" d="M2519.5,656.06c3.52,.82,7.04-1.2,8.09-4.57,1.42-3.52-.3-7.49-3.82-8.91-2.4-.9-239.86-86.15-368.18-121.95-3.9-.75-7.57,1.87-8.31,5.69-.6,3.37,1.27,6.74,4.49,7.94,127.95,35.73,364.96,120.83,367.36,121.73l.45,.15-.07-.07Z"/>
      <path class="cls-18" d="M2505.34,706.85c3.52,.82,7.12-1.2,8.17-4.72,1.35-3.6-.45-7.49-3.97-8.91-2.55-.9-258.81-88.69-368.78-119.41-3.9-.75-7.57,1.87-8.31,5.69-.6,3.37,1.27,6.74,4.49,7.94,109.67,30.64,365.56,118.28,368.11,119.18l.37,.15-.07,.07Z"/>
      <path class="cls-18" d="M2491.11,757.64c3.9,.67,7.57-1.95,8.24-5.84,.52-3.22-1.2-6.44-4.12-7.72-2.7-.9-277.76-91.24-369.45-116.78-3.9-.75-7.57,1.87-8.31,5.69-.6,3.37,1.27,6.74,4.49,7.94,91.39,25.47,366.16,115.74,368.93,116.63h.3l-.08,.07Z"/>
      <path class="cls-18" d="M2476.95,808.5c3.9,.6,7.57-2.02,8.24-5.92,.52-3.22-1.2-6.37-4.19-7.72-3-.82-296.79-93.79-370.13-114.24-3.9-.75-7.57,1.87-8.31,5.69-.6,3.37,1.27,6.74,4.49,7.94,73.11,20.38,366.76,113.19,369.68,114.16h.22v.07Z"/>
      <path class="cls-18" d="M2462.79,859.21c3.9,.75,7.57-1.8,8.39-5.62,.67-3.37-1.2-6.74-4.42-8.02-3.15-.9-315.74-96.33-370.73-111.69-3.9-.6-7.57,2.1-8.09,6.07-.45,3.22,1.27,6.37,4.27,7.64,54.83,15.28,367.36,110.64,370.5,111.62h.07Z"/>
      <path class="cls-18" d="M2448.64,910.08c3.9,.75,7.57-1.87,8.31-5.69,.6-3.37-1.27-6.74-4.49-7.94-3.37-.97-334.77-98.88-371.4-109.14-3.9-.6-7.57,2.1-8.09,6.07-.45,3.22,1.27,6.37,4.27,7.64,36.56,10.19,367.88,108.09,371.25,109.07h.15Z"/>
      <path class="cls-18" d="M2434.4,960.86c3.9,.6,7.57-2.1,8.09-6.07,.45-3.22-1.27-6.37-4.27-7.64-3.52-.97-353.72-101.43-372.08-106.52-3.9-.6-7.57,2.1-8.09,6.07-.45,3.22,1.27,6.37,4.27,7.64,18.28,5.09,368.48,105.55,372,106.52h.07Z"/>
      <path class="cls-18" d="M2047.49,907.68l372.75,103.97c3.9,.6,7.57-2.1,8.09-6.07,.45-3.22-1.27-6.37-4.27-7.64l-372.75-103.97c-3.9-.6-7.57,2.1-8.09,6.07-.45,3.22,1.27,6.37,4.27,7.64Z"/>
      <polygon class="cls-15" points="2604.97 644.07 2590.21 616.36 2563.25 632.46 2632.99 382.56 2676.96 386.01 2604.97 644.07"/>
      <path class="cls-15" d="M2634.86,771.72c-1.42-.37-1.57-2.25-1.5-5.92,0-.82,.67-1.42,1.5-1.35,.75,0,1.35,.6,1.35,1.35h0c.75-1.65,1.65-3.97,2.55-6.29,4.79-12.73,10.26-25.09,16.55-37.16,6.82-12.81,13.41-19.48,19.48-19.4,3.45,.22,6.52,2.17,8.17,5.24,.37,.67,.15,1.57-.52,1.95-.67,.37-1.57,.15-1.95-.52h0c-1.12-2.17-3.22-3.6-5.62-3.82-3.37,0-9.06,3.07-16.93,17.9-6.22,11.91-11.69,24.2-16.41,36.86-3.82,9.74-4.49,11.54-6.37,11.09l-.22,.15-.07-.07Z"/>
      <path class="cls-15" d="M2641.53,732.91c-.82,0-1.35-.75-1.35-1.57s.75-1.35,1.57-1.35l25.32-3c.75-.07,1.5,.45,1.57,1.27,.07,.75-.45,1.5-1.27,1.57l-25.24,3s-.37,.07-.6,0v.07Z"/>
      <path class="cls-15" d="M2684.38,765.88s-.45-.22-.6-.37c-17.83-18.35,3.97-43.6,4.19-43.82,.52-.6,1.42-.67,2.02-.15,.6,.52,.67,1.42,.15,2.02h0c-.82,.97-20.3,23.52-4.34,40,.52,.6,.52,1.5,0,2.02-.37,.37-.9,.45-1.35,.37h0l-.07-.07Z"/>
      <path class="cls-15" d="M2707.37,763.18c-.75-.22-1.2-.97-.97-1.72,0-.22,.15-.45,.3-.6,20.3-21.72,3.37-39.03,2.7-39.7-.52-.52-.6-1.42,0-1.95h0c.52-.6,1.35-.6,1.95-.07h0s19.63,20-2.55,43.75c-.37,.37-.9,.52-1.42,.37v-.07Z"/>
      <path class="cls-15" d="M2702.73,750.82s-.52-.3-.75-.52l-12.73-16.18c-.45-.6-.37-1.5,.22-2.02,.6-.45,1.5-.37,2.02,.22h0l12.81,16.18c.52,.6,.37,1.5-.22,2.02h0s-.82,.37-1.27,.3h-.07Z"/>
      <path class="cls-15" d="M2685.8,749.39s-.52-.22-.67-.37c-.52-.6-.45-1.5,.07-2.02l18.13-16.48c.52-.52,1.42-.52,1.95,0h0c.52,.6,.45,1.5-.15,2.02l-18.13,16.48s-.82,.45-1.35,.3l.15,.07Z"/>
      <path class="cls-15" d="M2063,825.28h0c-.75-.22-1.2-.97-.97-1.72,2.02-8.46,7.49-15.73,15.06-20.08,14.61-8.09,33.18-2.77,33.86-2.55,.75,.22,1.2,.97,.97,1.72-.15,.75-.82,1.2-1.57,1.05h-.22s-18.13-5.09-31.69,2.32c-6.89,3.97-11.84,10.64-13.63,18.35-.22,.75-.97,1.2-1.72,.97l-.07-.07Z"/>
      <path class="cls-15" d="M2092.59,837.79s-.6-.3-.75-.6c-.6-.9-.75-2.02-.45-3.07,1.12-2.55,2.92-4.72,5.17-6.29-6.44,1.12-13.56,.75-16.63-2.4-1.35-1.42-2.55-3.97-.22-8.17,2.32-5.02,8.09-7.34,13.33-5.47,5.54,1.8,10.34,6.59,9.89,10.19-.07,.75-.75,1.35-1.57,1.27-.75,0-1.35-.75-1.27-1.5h0c.15-1.87-3.3-5.77-7.94-7.27-3.9-1.5-8.24,.3-9.96,4.12-1.8,3.22-.6,4.42-.22,4.87,3.45,3.52,17.08,2.02,22.62-.9,.6-.45,1.5-.3,1.95,.3s.3,1.5-.3,1.95c-.07,.07-.22,.15-.37,.15-4.19,2.32-11.09,6.97-11.76,9.74-.07,.22,0,.52,0,.67,.45,.67,.22,1.57-.37,1.95-.37,.3-.75,.37-1.2,.3l.07,.15Z"/>
      <path class="cls-15" d="M2089.67,845.28c-1.27-.37-2.47-1.05-3.37-1.95-.6-.52-.6-1.42,0-2.02s1.42-.6,2.02,0c3.67,3.6,9.29-.37,9.51-.52,.6-.45,1.5-.3,2.02,.3,.45,.6,.3,1.5-.3,2.02h0c-2.77,2.1-6.37,2.92-9.81,2.25l-.07-.07Z"/>
      <path class="cls-15" d="M2116.71,860.56c-3.52-1.12-6.52-3.67-8.17-6.97-.37-.67-.15-1.57,.52-1.95,.67-.37,1.57-.15,1.95,.52h0c1.65,3.75,5.39,6.14,9.51,5.92,3-.15,5.69-1.95,6.89-4.72,.67-2.02,0-4.27-1.65-5.62-5.24-5.09-18.95,1.05-23.75,3.82-.67,.37-1.57,.15-1.95-.52-.22-.3-.22-.75-.15-1.12,.07-.37,.37-.67,.67-.82l36.71-21.2c.67-.37,1.5-.15,1.87,.52h0c.37,.67,.15,1.57-.52,1.95h0l-22.17,12.81c3.97-.97,8.17,0,11.31,2.47,2.47,2.1,3.37,5.54,2.4,8.61-1.65,3.82-5.24,6.29-9.36,6.59-1.35,.15-2.7,0-4.05-.37l-.07,.07Z"/>
      <path class="cls-15" d="M2108.32,869.55c-.75-.22-1.2-.97-.97-1.72,.22-.75,.97-1.2,1.72-1.05,11.84,2.92,21.35,1.8,28.24-3.3,10.56-7.79,11.54-22.4,11.54-22.55,0-.82,.75-1.42,1.57-1.35,.82,0,1.42,.75,1.35,1.57-.15,.6-1.05,16.11-12.73,24.65-7.49,5.69-17.9,6.82-30.49,3.82h-.07l-.15-.07Z"/>
      <g>
        <path class="cls-15" d="M2870.98,555.98h-.3c-.6-.37-.82-1.05-.67-1.72l8.17-30.11-12.06-5.62c-.75-.3-1.05-1.2-.67-1.87,.3-.75,1.2-1.05,1.87-.67l13.03,6.07c.6,.3,.97,.97,.75,1.65l-7.12,26.07,41.72-42.7c.45-.45,1.05-.52,1.65-.3l45.4,21.12c.67,.3,1.05,1.2,.67,1.87h0c-.3,.75-1.12,1.05-1.87,.75h0l-44.5-20.75-44.8,45.92s-.82,.37-1.27,.3h0Z"/>
        <path class="cls-15" d="M2925.66,577.7c-.52-.15-.9-.52-1.05-1.05l-10.64-42.77c-.15-.75,.3-1.5,1.05-1.72,.75-.15,1.5,.3,1.72,1.05l10.79,42.85c.22,.75-.22,1.5-.97,1.72h-.9v-.07Z"/>
        <path class="cls-15" d="M2895.02,563.47c-.45-.15-.75-.45-.9-.9-.22-.75,.07-1.5,.82-1.8l45.1-16.85c.75-.3,1.57,.07,1.8,.82,.3,.75-.07,1.57-.82,1.8h0l-45.1,16.85s-.6,.15-.9,0v.07Z"/>
      </g>
      <path class="cls-15" d="M2753.59,480.69h-.15c-2.1-.6-4.64-2.55-4.64-8.02-.37-6.37,4.19-11.99,10.49-12.88,6.52-1.35,14.08,.97,15.58,4.72,.3,.67,0,1.5-.67,1.8h0c-.75,.3-1.57,0-1.87-.75-.82-2.02-6.74-4.19-12.44-3-5.02,.6-8.61,5.02-8.24,10.11,0,4.42,2.02,5.02,2.62,5.24,5.62,1.8,18.65-7.42,22.85-13.71,.45-.67,1.27-.82,1.95-.45h0c.67,.45,.82,1.27,.45,1.95-3,4.72-7.49,13.41-6.59,16.7,0,.37,.3,.67,.6,.82,.67,.37,.97,1.2,.6,1.87h0c-.37,.75-1.2,.97-1.87,.67h0c-1.05-.52-1.72-1.5-2.02-2.62-.3-3.45,.45-6.97,2.1-10.04-5.99,4.79-13.63,8.91-18.73,7.49v.07Z"/>
      <path class="cls-15" d="M2783.78,470.96s-.22,0-.37-.07c-.67-.37-.9-1.27-.52-1.95h0l9.06-14.91c.45-.67,1.27-.9,1.95-.45,.67,.45,.9,1.27,.45,1.95l-3.97,6.52c.82-.22,1.72-.22,2.55,0,1.65,.37,2.92,1.65,3.15,3.3,.22,2.02-.75,3.97-2.47,5.09-2.1,1.35-4.79,1.2-6.82-.22-.37-.22-.6-.67-.67-1.12-.37,.52-.67,.97-.97,1.42h0c-.37,.52-.97,.75-1.57,.52l.22-.07Zm4.34-3.52l.37,.15c1.05,.82,2.55,.97,3.67,.3,.75-.45,1.27-1.35,1.2-2.25,0-.15-.15-.75-1.12-1.05s-3.3,1.12-4.79,2.85h.67Z"/>
      <path class="cls-15" d="M2383.24,990.83h-.3c-1.05-.6-1.72-1.57-2.02-2.7-.3-3.45,.45-6.97,2.1-9.96-5.99,4.87-13.71,9.06-18.8,7.42-2.1-.6-4.64-2.55-4.64-7.94-.37-6.37,4.19-11.99,10.49-12.88,6.44-1.35,14.08,.97,15.58,4.72,.37,.67,.15,1.57-.52,1.95-.67,.37-1.57,.15-1.95-.52,0-.15-.15-.22-.15-.37-.82-2.02-6.74-4.12-12.44-3-5.02,.6-8.61,5.02-8.24,10.04,0,4.42,2.02,5.09,2.62,5.24h0c5.77,1.57,18.58-7.49,22.77-13.71,.45-.67,1.35-.9,2.02-.45s.9,1.35,.45,2.02h0c-3,4.72-7.49,13.41-6.59,16.7,0,.37,.3,.67,.6,.82,.75,.3,1.05,1.12,.82,1.87-.3,.75-1.12,1.12-1.87,.82h0l.08-.07Z"/>
      <path class="cls-15" d="M2394.63,975.92h-.37c-.67-.45-.9-1.35-.52-2.02h0l9.06-15.06c.45-.67,1.27-.9,1.95-.45,.67,.37,.9,1.27,.45,1.87h0l-3.97,6.52c.82-.22,1.72-.22,2.55,0,1.65,.37,2.92,1.65,3.15,3.3,.22,2.02-.67,3.97-2.4,5.09-2.1,1.35-4.79,1.2-6.82-.22-.37-.22-.6-.67-.67-1.12-.37,.52-.67,.97-.97,1.42h0c-.37,.52-.97,.75-1.57,.6l.15,.07Zm4.34-3.52h.37c1.05,.97,2.55,1.05,3.75,.37,.82-.45,1.27-1.35,1.2-2.32,0-.15-.15-.75-1.12-1.05s-3.3,1.12-4.72,2.85h.45v.15h.07Z"/>
      <path class="cls-15" d="M2129.52,609.09c-.37-.07-.67-.37-.9-.75l-14.53-28.69c-.22-.45-.22-.97,0-1.35l19.18-31.91c.45-.67,1.35-.9,2.02-.52,.67,.45,.9,1.35,.52,2.02h0l-18.8,31.24,14.16,28.02c.37,.67,0,1.57-.67,1.87-.3,.15-.67,.15-.97,.07h0Z"/>
      <path class="cls-15" d="M2160.61,592.53s-.6-.3-.75-.6l-18.35-26.67c-.45-.67-.3-1.57,.37-2.02,.6-.45,1.5-.3,1.95,.37h0l18.35,26.74c.45,.6,.3,1.5-.37,1.95h0s-.75,.37-1.2,.22Z"/>
      <path class="cls-15" d="M2142.63,588.11s-.37,0-.52-.15c-.6-.45-.75-1.35-.3-2.02h0l17.45-22.55c.45-.6,1.35-.75,2.02-.3h0c.6,.52,.75,1.42,.22,2.02l-17.45,22.55c-.37,.45-.97,.6-1.5,.45h.08Z"/>
      <path class="cls-15" d="M2165.55,599.8c-.75-.07-1.35-.82-1.2-1.57,.07-.75,.82-1.35,1.57-1.2,1.5,0,3.15-3.67,3.82-6.29,.22-.75,.97-1.2,1.72-1.05,.75,.22,1.2,.97,1.05,1.72-.37,1.42-2.32,8.31-6.52,8.46h-.45v-.07Z"/>
      <path class="cls-15" d="M2192.22,582.87s-.52-.22-.75-.52l-11.46-14.76c-.45-.6-.37-1.5,.22-2.02,.6-.45,1.5-.37,2.02,.22l11.46,14.76c.45,.6,.37,1.5-.22,2.02-.37,.3-.82,.37-1.27,.22v.07Z"/>
      <path class="cls-15" d="M2174.47,612.16s-.3,0-.37-.07c-.67-.37-.9-1.27-.45-1.87h0l28.62-47.42c.45-.67,1.35-.9,2.02-.52,.67,.45,.9,1.35,.52,2.02h0l-28.69,47.34c-.3,.52-.97,.82-1.57,.6l-.08-.07Z"/>
      <path class="cls-15" d="M2206.75,605.79s-.3,0-.45-.15c-.67-.45-.82-1.35-.37-1.95h0l17.38-25.24-15.51-31.99c-.37-.67-.15-1.57,.52-1.95,.75-.3,1.57,0,1.87,.67l15.88,32.74c.22,.45,.22,.97-.07,1.42l-17.9,25.92c-.3,.45-.9,.67-1.42,.52h.07Z"/>
      <path class="cls-15" d="M2826.63,840.41s-.52-.22-.75-.52c-.37-.45-.45-1.12,0-1.65l61.35-90.49c.45-.67,1.27-.82,1.95-.37,.22,.15,.37,.37,.52,.6l28.02,56.71s.22,.75,0,1.2c-.15,.37-.45,.67-.82,.82l-89.37,33.78s-.6,.07-.82,0l-.08-.07Zm61.5-88.92l-57.46,84.72,83.75-31.61-26.22-53.19-.07,.07Z"/>
      <path class="cls-15" d="M2904.01,811.2c-.37-.15-.75-.37-.9-.75l-5.84-12.21s-.15-.75,0-1.12c.15-.37,.37-.6,.75-.82l11.31-5.39c.75-.3,1.57,0,1.87,.67s0,1.5-.67,1.87h0l-10.19,4.79,5.24,10.94c.37,.67,.15,1.57-.52,1.95h0s-.67,.15-1.05,0v.07Z"/>
      <path class="cls-15" d="M2367.43,446.09c-19.63-5.47-31.09-25.84-25.62-45.47,5.47-19.63,25.84-31.09,45.47-25.62s31.09,25.84,25.62,45.47h0c-5.47,19.63-25.84,31.09-45.47,25.62Zm19.1-68.32c-18.13-5.02-36.93,5.54-41.95,23.67s5.54,36.93,23.67,41.95c18.13,5.02,36.93-5.54,41.95-23.67,5.02-18.13-5.54-36.86-23.67-41.95h0Z"/>
      <path class="cls-15" d="M2412.6,430.51c-21.72-6.07-34.38-28.54-28.32-50.19,6.07-21.72,28.54-34.38,50.19-28.32,21.72,6.07,34.38,28.54,28.32,50.19h0c-6.07,21.72-28.54,34.38-50.19,28.32Zm21.12-75.81c-20.15-5.62-41.13,6.14-46.74,26.29-5.62,20.15,6.14,41.13,26.29,46.74,20.15,5.62,41.13-6.14,46.74-26.29h0c5.62-20.23-6.22-41.13-26.29-46.74Z"/>
      <path class="cls-15" d="M2383.91,395.07s-.3,0-.37-.07c-.67-.37-.82-1.27-.45-1.95l9.14-14.76c.37-.67,1.27-.9,1.87-.45h0c.67,.37,.9,1.2,.52,1.87h0l-9.14,14.83c-.37,.52-.97,.75-1.57,.6v-.07Z"/>
      <path class="cls-15" d="M2385.94,405.41s-.22,0-.37-.07c-.67-.37-.9-1.27-.52-1.95l13.03-21.27c.37-.67,1.2-.9,1.87-.52h0c.67,.45,.9,1.27,.45,1.95l-13.03,21.27c-.37,.52-.97,.75-1.57,.6h.15Z"/>
      <path class="cls-15" d="M2390.58,414.17h-.37c-.67-.52-.9-1.35-.52-2.02h0l14.16-24.27c.37-.67,1.27-.9,1.95-.52s.9,1.27,.52,1.95h0l-14.16,24.2c-.3,.52-.97,.82-1.57,.6v.07Z"/>
      <path class="cls-15" d="M2398.45,423.16h-.3c-.67-.45-.97-1.27-.67-2.02l11.84-23.45c.37-.75,1.2-.97,1.95-.67,.75,.37,.97,1.2,.67,1.95l-11.76,23.45c-.3,.6-1.05,.9-1.72,.67v.07Z"/>
      <path class="cls-15" d="M2402.79,426.31h-.3c-.67-.45-.97-1.35-.6-2.02h0l9.44-17.23c.37-.67,1.2-.97,1.95-.6h0c.67,.37,.9,1.2,.6,1.87h0l-9.44,17.3c-.37,.52-.97,.82-1.65,.67Z"/>
      <path class="cls-15" d="M2350.58,371.7c-1.27-.45-2.32-1.27-3-2.47-2.4-3-2.02-7.27,.75-9.89,2.47-2.55,6.89-4.27,9.29-2.85v-.22c0-.82,.67-1.5,1.5-1.5s1.5,.67,1.5,1.5c.15,4.79,1.27,8.84,2.1,9.21,.75-.07,1.5,.45,1.57,1.2,0,.75-.52,1.5-1.27,1.57-.82,.15-1.65-.07-2.25-.6-.9-.97-1.57-2.17-1.8-3.45-1.35,3.52-3.45,6.74-5.92,7.57-.82,.3-1.65,.3-2.47,0v-.07Zm5.39-12.81c-2.1,0-4.19,.9-5.62,2.47-1.87,1.57-2.1,4.42-.52,6.29,1.12,1.65,1.87,1.35,2.1,1.27,2.1-.67,4.57-5.69,5.32-9.81-.37,.15-.82,0-1.12-.15h-.15v-.07Z"/>
      <path class="cls-15" d="M2418.15,350.5c-.52-.15-.9-.52-.97-1.05h0l-5.39-22.92c-.15-.75,.3-1.5,1.05-1.72h0c.75-.15,1.5,.3,1.72,1.05h0l2.7,11.39c.52-1.42,1.5-2.7,2.85-3.45,1.72-1.12,3.97-1.05,5.69,.22,1.95,1.65,2.77,4.19,2.17,6.67-.75,3.07-3.3,5.32-6.37,5.77-.75,.15-1.5-.3-1.72-1.05-.15-.75,.3-1.5,1.12-1.72,2.02-.22,3.75-1.65,4.19-3.6,.3-1.42-.15-2.85-1.2-3.82-.75-.52-1.8-.52-2.55,0-3.22,1.72-2.1,9.89-1.5,12.58h0c.15,.75-.3,1.5-1.05,1.72h-.75v-.07Z"/>
      <path class="cls-15" d="M2413.88,666.4s-.67-.37-.82-.67l-11.39-18.95c-.37-.67,0-1.57,.67-1.87,.6-.3,1.42-.15,1.8,.45l11.39,18.88c.37,.67,.15,1.57-.52,1.95h0s-.67,.22-1.05,.15l-.07,.07Z"/>
      <path class="cls-15" d="M2400.69,663.7s-.52-.22-.67-.45c-.52-.6-.45-1.5,.15-2.02l18.28-15.66c.6-.52,1.5-.45,2.02,.15h0c.52,.6,.45,1.5-.15,1.95h0l-18.35,15.73s-.82,.45-1.27,.3h0Z"/>
      <path class="cls-15" d="M2432.68,657.78c-.6-.15-.97-.67-1.05-1.2-.07-.75,.52-1.5,1.27-1.57h0l17.08-1.42c.75,0,1.5,.52,1.57,1.35,0,.75-.52,1.5-1.27,1.5l-17.08,1.42h-.45l-.07-.07Z"/>
      <path class="cls-15" d="M2468.71,653.21s-.6-.3-.82-.6l-7.12-10.79c-.52-.6-.45-1.5,.15-2.02s1.5-.45,2.02,.15c.07,.07,.15,.22,.22,.3l7.12,10.79c.37,.67,.15,1.5-.52,1.95-.3,.22-.67,.22-1.05,.15v.07Z"/>
      <path class="cls-15" d="M2457.7,674.49h-.37c-.67-.52-.9-1.35-.52-2.02h0l23.3-37.53c.45-.67,1.35-.9,2.02-.52,.67,.45,.9,1.35,.52,2.02l-23.3,37.53c-.37,.52-1.05,.75-1.65,.52Z"/>
      <path class="cls-15" d="M2549.84,978.39s-.67-.3-.82-.67l-11.39-18.88c-.37-.67-.15-1.57,.52-1.95h0c.67-.37,1.5-.15,1.87,.52h0l11.39,18.95c.37,.67,.15,1.5-.52,1.87h0s-.75,.22-1.12,.15h.07Z"/>
      <path class="cls-15" d="M2536.65,975.7s-.52-.22-.67-.45c-.52-.6-.45-1.5,.15-2.02l18.35-15.73c.6-.52,1.5-.45,2.02,.15,.52,.6,.45,1.5-.15,2.02l-18.35,15.66s-.82,.45-1.27,.3l-.07,.07Z"/>
      <path class="cls-15" d="M2568.64,969.78c-.82,0-1.35-.75-1.27-1.57,0-.82,.75-1.35,1.57-1.27h0l17.08-1.42c.75-.15,1.5,.37,1.65,1.12s-.37,1.5-1.12,1.65h-.3l-17.08,1.42h-.52v.07Z"/>
      <path class="cls-15" d="M2604.67,965.21s-.6-.3-.82-.6l-7.12-10.79c-.45-.67-.3-1.5,.3-1.95s1.5-.3,1.95,.3h0l7.12,10.94c.45,.67,.3,1.5-.37,1.95-.37,.22-.75,.3-1.2,.15h.15Z"/>
      <path class="cls-15" d="M2593.66,986.41h-.37c-.67-.52-.9-1.42-.45-2.1l23.3-37.53c.45-.67,1.35-.9,2.02-.52s.9,1.35,.52,2.02l-23.45,37.38c-.3,.52-.9,.75-1.5,.67l-.07,.07Z"/>
      <path class="cls-15" d="M2691.64,919.21c-.6-.15-1.12-.37-1.65-.67-3.52-1.87-5.54-6.29-6.07-13.18-.9-13.26,6.22-19.33,10.86-21.87l-18.28-5.09-7.72,29.96c-.15,.75-.9,1.2-1.65,1.05h0c-.75-.22-1.2-.97-1.05-1.72l8.09-31.39c.22-.75,.97-1.2,1.72-1.05h0l23.6,6.59c.75,.22,1.2,1.05,.9,1.8-.15,.45-.52,.82-.97,.97-.6,.15-13.93,3.6-12.66,20.53,.37,5.69,2.02,9.36,4.57,10.86,2.32,.9,4.87,.82,7.04-.37,.67-.45,1.5-.22,1.95,.37,.45,.67,.22,1.5-.37,1.95,0,0-.15,.07-.22,.07-2.47,1.35-5.32,1.72-8.09,1.12v.07Z"/>
      <g>
        <path class="cls-15" d="M2491.78,803.93h0l-31.54-11.31c-.67-.22-1.05-.82-.9-1.5l6.37-47.12c0-.52,.45-.97,.97-1.12l31.99-11.01s.6-.07,.9,0l34.83,12.44c.67,.22,1.05,.97,.9,1.65l-10.34,45.69c-.15,.45-.45,.82-.9,1.05l-31.24,11.39s-.67,.15-.97,0l-.07-.15Zm-29.59-13.63l29.96,10.79,30.04-10.94,9.89-43.67-33.18-11.84-30.71,10.56-6.07,45.1h.07Z"/>
        <path class="cls-15" d="M2460.25,792.54c-.45-.15-.82-.45-.97-.82-.22-.75,.07-1.57,.82-1.8l31.24-11.46s.67-.07,.97,0l31.61,11.39c.75,.3,1.12,1.05,.9,1.8s-1.05,1.12-1.8,.9l-31.16-11.24-30.71,11.31s-.6,.07-.82,0l-.07-.07Z"/>
        <path class="cls-15" d="M2491.41,781.16c-.67-.22-1.12-.9-1.05-1.57l7.12-46.67c.15-.75,.82-1.35,1.65-1.2,.75,.15,1.35,.82,1.2,1.65l-7.12,46.67c-.15,.75-.82,1.27-1.65,1.2h-.15v-.07Z"/>
        <path class="cls-15" d="M2500.85,759.43h-.15l-34.38-14.08c-.75-.3-1.05-1.05-.82-1.8h0c.3-.75,1.12-1.12,1.87-.82l33.78,13.78,31.99-12.36c.75-.3,1.57,.07,1.87,.82,.22,.75-.07,1.57-.82,1.8l-32.51,12.58s-.52,.15-.82,0v.07Z"/>
        <path class="cls-15" d="M2491.78,803.93c-.75-.22-1.12-.9-1.05-1.65l9.14-44.57c.15-.75,.9-1.27,1.65-1.12h0c.75,.15,1.27,.9,1.12,1.72l-9.14,44.57c-.15,.75-.9,1.27-1.65,1.12h-.07v-.07Z"/>
      </g>
      <path class="cls-15" d="M2281.89,853.14s-.52-.22-.67-.45c-.3-.37-.45-.9-.3-1.35l17.9-59.85c.15-.52,.6-.9,1.12-.97,.52-.15,1.05,0,1.42,.37l41.42,50.56c.3,.37,.37,.9,.22,1.42-.15,.45-.6,.82-1.12,.9l-59.4,9.51s-.37,0-.52-.15h-.07Zm18.88-58.13l-16.48,55.06,54.61-8.46-38.13-46.52v-.07Z"/>
      <path class="cls-15" d="M2311.55,848.2c-.52-.15-.9-.52-1.05-1.05l-11.76-54.76c-.15-.75,.3-1.5,1.12-1.72,.75-.15,1.5,.3,1.72,1.12l11.76,54.76c.15,.75-.3,1.5-1.12,1.72h-.67v-.07Z"/>
      <path class="cls-15" d="M2318.37,847.53c-.52-.15-.9-.6-1.05-1.12l-1.57-7.94-5.54,.97c-.75,.15-1.5-.37-1.65-1.12h0c-.15-.82,.37-1.5,1.12-1.65h0l6.89-1.27c.75-.15,1.5,.37,1.65,1.12h0l1.8,9.36c.15,.75-.3,1.5-1.05,1.65h-.6Z"/>
      <path class="cls-15" d="M2819.36,1000.19c-.37-.07-.67-.37-.9-.75l-15.36-29.44c-.37-.67-.22-1.57,.45-1.95,.67-.37,1.57-.22,1.95,.45v.15l15.43,29.44c.37,.67,.15,1.5-.52,1.87h0s-.75,.22-1.12,.15l.07,.07Z"/>
      <path class="cls-15" d="M2801.68,993.6s-.52-.22-.75-.52c-.52-.6-.37-1.5,.15-1.95h0l25.24-19.93c.6-.45,1.42-.45,1.95,.15h0c.52,.67,.37,1.5-.15,2.02h0l-25.24,19.93s-.82,.37-1.27,.3h.07Z"/>
      <path class="cls-15" d="M2845.81,982.29l-12.29-3.45c-.6-.15-.97-.67-1.05-1.27,0-.6,.3-1.12,.9-1.35,2.7-1.12,9.74-4.94,10.04-8.76,.15-.9-.15-1.87-.75-2.62-.82-.67-1.95-.97-3-.82-.75,.07-1.42-.45-1.5-1.27h0c0-.82,.52-1.5,1.27-1.57,1.87-.15,3.75,.45,5.17,1.65,1.27,1.27,1.8,3.07,1.57,4.87-.3,4.19-5.02,7.42-8.39,9.44l8.69,2.4c.75,.22,1.2,.97,.97,1.72-.22,.75-.97,1.2-1.72,.97l.08,.07Z"/>
      <path class="cls-15" d="M2246.9,356.12c-.37-.07-.67-.37-.9-.75l-15.36-29.44c-.37-.67-.07-1.57,.6-1.95s1.57-.07,1.95,.6l15.36,29.44c.37,.67,.15,1.57-.52,1.95-.37,.15-.75,.22-1.12,0v.15Z"/>
      <path class="cls-15" d="M2229.22,349.6s-.52-.22-.75-.45c-.45-.6-.37-1.5,.22-2.02l25.24-19.93c.6-.45,1.5-.37,2.02,.22s.37,1.5-.22,2.02l-25.24,19.93s-.82,.37-1.27,.22h0Z"/>
      <path class="cls-15" d="M2273.35,338.37l-12.29-3.45c-.75-.22-1.2-.97-.97-1.72,.15-.37,.45-.75,.82-.9,2.7-1.12,9.74-4.94,10.04-8.76,.15-.9-.07-1.87-.75-2.62-.82-.6-1.87-.9-2.92-.82-.75,.07-1.5-.52-1.57-1.27h0c0-.82,.52-1.5,1.27-1.57,1.87-.15,3.75,.45,5.17,1.65,1.27,1.27,1.87,3.07,1.57,4.87-.3,4.19-5.02,7.42-8.54,9.44l8.76,2.47c.75,.22,1.2,.97,.97,1.72-.22,.67-.9,1.12-1.65,.97h.08Z"/>
    </g>
    <g>
      <g>
        <g>
          <path class="cls-15" d="M3203.5,2059.94H1849.51c-24.2,0-43.9-19.7-43.9-43.9V43.9c0-24.2,19.7-43.9,43.9-43.9h1353.99c24.2,0,43.9,19.7,43.9,43.9V2016.04c0,24.2-19.7,43.9-43.9,43.9ZM1849.51,1.8c-23.15,0-42.02,18.88-42.02,42.02V2016.04c0,23.15,18.88,42.02,42.02,42.02h1353.99c23.15,0,42.02-18.88,42.02-42.02V43.9c0-23.15-18.88-42.02-42.02-42.02H1849.51v-.07Z"/>
          <path class="cls-15" d="M1642.16,2059.94H288.24c-24.2,0-43.9-19.7-43.9-43.9V43.9c0-24.2,19.7-43.9,43.9-43.9H1642.16c24.2,0,43.9,19.7,43.9,43.9V2016.04c0,24.2-19.7,43.9-43.9,43.9ZM288.24,1.8c-23.15,0-42.02,18.88-42.02,42.02V2016.04c0,23.15,18.88,42.02,42.02,42.02H1642.16c23.15,0,42.02-18.88,42.02-42.02V43.9c0-23.15-18.88-42.02-42.02-42.02H288.24v-.07Z"/>
        </g>
        <path class="cls-15" d="M.25,2519.28H3503.21c-.08-.62-.17-1.25-.25-1.87H0c.08,.62,.17,1.25,.25,1.87Z"/>
      </g>
      <rect class="cls-15" x="265.17" y="2624.31" width="120.3" height="1.87"/>
      <rect class="cls-15" x="1154.2" y="2604.01" width="400.99" height="1.87"/>
      <rect class="cls-15" x="392.97" y="2693.9" width="271.55" height="1.87"/>
      <rect class="cls-15" x="2712.32" y="2603.03" width="323.53" height="1.87"/>
      <rect class="cls-15" x="3102.6" y="2603.03" width="47.42" height="1.87"/>
      <rect class="cls-15" x="2246.83" y="2649.7" width="403.69" height="1.87"/>
    </g>
    <g>
      <g>
        <path class="cls-15" d="M492.6,2798.85c-.15-4.19-14.31-423.46-82.55-489.76-66.29-64.5-142.48-2.4-145.62,.3l-6.82-8.17c.82-.75,86.75-70.86,159.93,.3,71.24,69.29,85.17,479.65,85.77,497.1l-10.64,.3-.07-.07Z"/>
        <path class="cls-15" d="M498.44,2881.25c-.52-5.02-46.59-503.32,135.36-712.17l8.02,7.04c-178.96,205.4-133.26,699.13-132.81,704.07l-10.64,1.05h.07Z"/>
        <path class="cls-15" d="M491.7,2828.51l-10.64-.67c.37-5.62,35.58-566.47-97.83-689.24l7.19-7.87c137.23,126.22,102.85,674.56,101.28,697.78Z"/>
        <path class="cls-15" d="M509.08,2828.21h-10.64c.15-15.51,4.42-378.89,107.65-438.07,22.92-13.18,45.4-15.36,66.82-6.52,62.4,25.84,93.34,136.86,94.61,141.58l-10.26,2.85c-.3-1.12-30.86-110.79-88.39-134.54-18.13-7.49-37.45-5.54-57.38,5.92-97.98,56.11-102.25,425.11-102.25,428.78h-.15Z"/>
        <path class="cls-15" d="M468.93,2828.43l-10.64-.6c.15-2.85,15.58-287.13-61.13-387.28-18.58-24.27-38.8-35.81-60.08-34.31-50.26,3.52-92.44,77.08-92.81,77.83l-9.29-5.24c1.8-3.22,45.4-79.25,101.35-83.22,25.02-1.8,48.39,11.16,69.29,38.5,79.1,103.3,64.05,382.56,63.3,394.4v-.08Z"/>
        <path class="cls-15" d="M485.71,2867.16c-2.1-27.57-50.19-676.66,34.38-791.04l8.61,6.37c-82.25,111.24-32.89,777.19-32.36,783.93l-10.64,.82v-.07Z"/>
      </g>
      <path class="cls-21" d="M695.83,2449.39s-50.71,18.73-35.66,62.85c15.06,44.12,175.51,116.86,175.51,116.86,0,0,67.19-61.58,5.47-161.73-61.73-100.15-143.98-49.52-145.32-17.98h0Z"/>
      <path class="cls-21" d="M475.29,2365.34s54.01-2.25,57.08,44.27c3.07,46.59-117.01,175.36-117.01,175.36,0,0-85.7-31.01-67.27-147.2,18.43-116.18,113.79-101.13,127.27-72.51l-.07,.07Z"/>
      <path class="cls-21" d="M429.52,2142.49s36.03-3.9,33.11-25.77c-2.92-21.95-140.01-78.43-220.91,12.88,0,0,51.84,88.99,126.67,90.12,74.91,1.2,61.13-77.23,61.13-77.23Z"/>
      <path class="cls-21" d="M496.64,2089.23s-32.59,15.81-41.72-4.42c-9.14-20.15,77.38-140.61,194.32-105.92,0,0,3.07,102.93-59.85,143.53-62.92,40.6-92.74-33.26-92.74-33.26v.07Z"/>
      <path class="cls-21" d="M326.15,2431.71s24.87-20.08-1.95-29.89c-26.82-9.81-158.43-7.04-159.86,123.38,0,0,153.34,25.47,172.29-24.2,18.95-49.67-10.49-69.29-10.49-69.29Z"/>
      <path class="cls-21" d="M638.75,2139.19s-24.87-20.08,1.95-29.89,158.43-7.04,159.86,123.38c0,0-153.34,25.47-172.29-24.2-18.95-49.67,10.49-69.29,10.49-69.29Z"/>
      <path class="cls-21" d="M557.69,2244.29s-2.17-24.42,17.53-14.83c19.7,9.59,88.32,83.6,17.15,153.86,0,0-95.73-70.94-78.51-107.87,17.23-36.93,43.82-31.16,43.82-31.16Z"/>
      <path class="cls-21" d="M303.9,2279.05s14.83-19.48-6.89-21.87c-21.8-2.4-119.33,23.6-96.56,120.98,0,0,118.81-8.91,123.9-49.37s-20.45-49.74-20.45-49.74h0Z"/>
      <polygon class="cls-1" points="609.01 3016.31 369.3 3016.31 305.55 2722.21 666.69 2722.21 609.01 3016.31"/>
      <rect class="cls-18" x="283.82" y="2718.02" width="403.69" height="84.57"/>
    </g>
    <g>
      <path class="cls-15" d="M663.09,310.65c-298.96,137.76-503.54,330.88-457.25,431.4,46.37,100.53,326.23,70.27,624.97-67.57,298.74-137.76,503.54-331.03,457.25-431.4-46.37-100.38-326.23-70.27-624.97,67.57Zm147.42,319.64c-261.51,120.53-503.92,151.69-541.75,69.67-37.75-82.03,143.53-246,404.81-366.46,261.28-120.53,503.77-151.84,541.75-69.89,37.98,82.03-143.53,246.15-404.81,366.68h0Z"/>
      <circle class="cls-18" cx="776.22" cy="468.37" r="339.04"/>
      <g class="cls-20">
        <path class="cls-12" d="M489.15,648.12c68.69-9.66,136.71-23.82,203.53-42.47,136.56-40.75,326.53-137.23,414.02-212.44,4.57,19.33,7.19,39.03,7.87,58.88-109.22,73.11-373.05,233.64-592.68,239.41-12.14-13.48-23.07-27.94-32.74-43.3v-.07Z"/>
        <path class="cls-12" d="M484.06,297.17c4.57-8.76,9.81-17.15,15.73-25.09,102.4-30.41,299.56-77.53,389.38-123.23,13.56,4.57,26.82,10.19,39.48,16.78-111.91,25.69-344.13,107.94-444.59,131.47v.07Z"/>
        <path class="cls-12" d="M457.76,351.55c77.68-25.24,158.13-41.13,239.64-47.34,54.83,0,217.09-63.75,274.47-112.59,4.57,3,8.91,6.37,12.96,9.96-140.61,59.25-312.07,205.63-391.1,248.1-48.77,26.59-100,48.47-152.97,65.25-3.97-25.69-4.79-51.84-2.32-77.76,2.77-29.21,9.29-57.98,19.33-85.62Z"/>
      </g>
      <path class="cls-15" d="M445.18,540.17c24.72-5.84,49.07-12.96,73.11-21.27,92.81-31.46,260.24-166.75,408.26-229,55.66-23.15,87.49-36.56,106.22-43.75,5.77,6.82,11.24,13.63,16.33,21.27-42.4,24.8-86.45,46.82-131.69,65.85-94.31,39.48-194.99,93.04-252.97,141.5-44.42,36.78-156.56,84.95-208.85,102.85-4.34-12.21-7.87-24.72-10.41-37.38v-.07Z"/>
      <path class="cls-15" d="M464.13,600.1c85.4-21.2,171.99-37.16,259.41-47.79,146.97-17,202.63-82.18,262.78-144.28,29.89-29.21,64.12-53.71,101.58-72.44,5.54,12.51,10.19,25.47,13.78,38.65-67.64,56.33-142.25,103.6-221.96,140.83-139.11,65.25-332.45,96.86-404.89,107.27-4.12-7.12-7.72-14.61-10.64-22.32l-.07,.07Z"/>
      <path class="cls-15" d="M540.76,711.64c127.42-16.41,251.4-53.49,366.83-109.82,94.54-46.52,161.88-83.3,206.68-108.77,.22,2.1,.22,4.27,0,6.37-1.05,9.96-2.1,19.55-4.05,29.06-106.22,56.71-351.78,173.79-566.32,185.7-1.5-.22-2.32-1.5-3.22-2.55h.07Z"/>
      <path class="cls-1" d="M529.75,235.37c71.69-75.51,173.94-114.01,277.61-104.5,8.09,0,16.33,1.95,24.2,3.22-72.21,33.56-206.3,88.39-301.89,101.35l.07-.07Z"/>
      <path class="cls-15" d="M630.21,773.82c84.95-20.15,302.11-74.76,394.47-125.32,17.15-9.74,34.83-18.28,53.11-25.69-5.39,11.09-11.54,21.72-18.5,31.84-66.07,28.92-193.72,81.8-265.78,93.49-63.75,10.19-120.68,21.27-154.84,29.51h0c-3-.97-5.84-2.25-8.46-3.82h0Z"/>
      <path class="cls-15" d="M917.03,192.82s-124.27,76.93-180.16,86.22c-33.93,5.77-68.24,8.99-102.63,9.59,0,0,179.71-92.21,282.78-95.81Z"/>
      <path class="cls-15" d="M1177.72,230.95c16.41,5.92,29.81,17.9,37.6,33.48,37.75,82.03-143.53,246.15-404.81,366.68-261.28,120.53-503.92,151.69-541.75,69.67-6.37-15.96-6.37-33.78,0-49.74l-63.97,29.44c-7.27,20.23-6.82,42.47,1.42,62.4,46.37,100.53,326.23,70.27,624.97-67.57,298.74-137.76,503.54-331.03,457.25-431.4-9.74-19.18-26.37-34.01-46.52-41.5l-64.2,28.54h0Z"/>
    </g>
    <g>
      <path class="cls-15" d="M3134.28,1558.34h0l-90.49-32.51c-1.87-.6-3-2.47-2.7-4.34l18.2-135.29c.15-1.57,1.2-2.85,2.7-3.3l91.84-31.54c.9-.3,1.8-.22,2.7,0l100,35.58c1.95,.67,3,2.7,2.55,4.72l-29.66,131.09c-.37,1.35-1.35,2.47-2.62,3l-89.67,32.66c-.9,.37-1.95,.3-2.85,0v-.07Zm-84.95-39.18l86.07,30.94,86.3-31.39,28.47-125.32-95.28-33.93-88.09,30.19-17.45,129.52h0Z"/>
      <path class="cls-15" d="M3043.87,1525.83c-1.27-.37-2.32-1.27-2.77-2.47-.75-2.1,.3-4.42,2.4-5.24l89.59-32.89c.9-.3,1.87-.3,2.77,0l90.72,32.74c2.1,.75,3.22,3.07,2.47,5.24-.75,2.1-3.07,3.22-5.24,2.47l-89.44-32.29-88.09,32.44c-.82,.3-1.65,.3-2.47,0h.08Z"/>
      <path class="cls-15" d="M3133.38,1493.02c-1.95-.6-3.22-2.47-2.92-4.57l20.45-133.86c.37-2.25,2.47-3.75,4.64-3.45,2.25,.37,3.75,2.47,3.45,4.64l-20.45,133.86c-.37,2.17-2.47,3.67-4.64,3.45l-.45-.15-.07,.07Z"/>
      <path class="cls-15" d="M3160.58,1430.77l-.45-.15-98.73-40.23c-2.02-.75-3.07-3.07-2.32-5.17v-.22c.97-2.02,3.3-3,5.39-2.25l97.01,39.55,91.84-35.43c2.1-.82,4.42,.22,5.24,2.32,.75,2.1-.3,4.42-2.4,5.24l-93.26,36.03c-.75,.3-1.57,.37-2.32,.22v.07Z"/>
      <path class="cls-15" d="M3134.28,1558.34c-2.02-.6-3.3-2.62-2.92-4.72l26.29-127.95c.45-2.17,2.55-3.67,4.79-3.22h0c2.25,.45,3.67,2.62,3.22,4.87l-26.29,127.95c-.45,2.17-2.62,3.6-4.79,3.15h-.3v-.07Z"/>
    </g>
  </g>
  <g id="freepik--Shadow--inject-26">
    <path class="cls-14" d="M3315.56,3022.45c0,25.39-700.55,45.92-1564.71,45.92s-1564.71-20.6-1564.71-45.92,700.55-45.92,1564.71-45.92,1564.71,20.6,1564.71,45.92Z"/>
  </g>
  <g id="freepik--Books--inject-26">
    <g id="freepik--freepik--Books--inject-2--inject-26">
      <polygon class="cls-10" points="2678.91 2631.72 2401.44 2631.72 2401.44 2618.91 2678.61 2618.91 2678.91 2631.72"/>
      <g>
        <rect class="cls-17" x="2400.84" y="2620.78" width="292.97" height="127.05"/>
        <rect class="cls-3" x="2400.84" y="2620.78" width="292.97" height="127.05"/>
        <polygon class="cls-10" points="2670.29 2644.01 2427.21 2649.18 2670.29 2654.42 2670.29 2644.01"/>
        <polygon class="cls-10" points="2670.29 2690.98 2412.9 2695.32 2670.29 2699.07 2670.29 2690.98"/>
        <polygon class="cls-10" points="2670.29 2718.47 2415.15 2723.64 2670.29 2728.8 2670.29 2718.47"/>
        <polygon class="cls-10" points="2400.92 2662.14 2647.67 2669.63 2400.92 2674.72 2400.92 2662.14"/>
        <path class="cls-23" d="M3054.58,2683.63c0,31.76-25.77,57.53-57.53,57.53h-609.76c-2.32,0-4.19,1.87-4.19,4.19h0v4.57c0,2.32,1.87,4.19,4.19,4.19h612.83c39.03,0,70.64-31.69,70.64-70.79v-.37c-.82-39.25-33.04-70.49-72.21-70.27h-611.19c-2.32,0-4.19,1.87-4.19,4.19h0v4.57c0,2.32,1.87,4.27,4.19,4.27h607.97c32.21-.07,58.58,25.62,59.33,57.83l-.07,.08Z"/>
        <path class="cls-7" d="M3054.58,2683.63c0,31.76-25.77,57.53-57.53,57.53h-609.76c-2.32,0-4.19,1.87-4.19,4.19h0v4.57c0,2.32,1.87,4.19,4.19,4.19h612.83c39.03,0,70.64-31.69,70.64-70.79v-.37c-.82-39.25-33.04-70.49-72.21-70.27h-611.19c-2.32,0-4.19,1.87-4.19,4.19h0v4.57c0,2.32,1.87,4.27,4.19,4.27h607.97c32.21-.07,58.58,25.62,59.33,57.83l-.07,.08Z"/>
        <path class="cls-17" d="M3276.91,2684.38h0c0,35.13-28.39,63.6-63.52,63.67h-543.24v-127.35h542.72c35.13-.22,63.75,28.09,63.97,63.15v.45l.07,.07Z"/>
        <path class="cls-6" d="M2670.22,2620.78v127.35h543.09c35.13,0,63.67-28.47,63.67-63.67s-28.47-63.67-63.67-63.67h-543.09Z"/>
        <polygon class="cls-10" points="2670.29 2654.42 2670.29 2644.01 3211.59 2648.35 2670.29 2654.42"/>
        <polygon class="cls-10" points="2670.29 2699.07 2670.29 2690.98 2913.3 2699.74 2670.29 2699.07"/>
        <polygon class="cls-10" points="2670.29 2728.8 2670.29 2718.47 3062.07 2724.53 2670.29 2728.8"/>
        <path class="cls-10" d="M3214.21,2633.15c10.41,0,20.53,3.9,28.24,10.94-3.37,6.59-6.07,13.48-7.94,20.68l-542.72,4.19,541.75,1.35c-.82,4.42-1.27,8.91-1.27,13.41,0,5.24,.6,10.56,1.8,15.66l-365.71,8.02,369.15,4.19c3.15,8.84,7.27,17.3,12.29,25.24,28.91-20,36.11-59.7,16.11-88.54-11.84-17.15-31.39-27.34-52.21-27.42h-543.39v12.36l543.99-.15-.07,.07Z"/>
        <path class="cls-23" d="M3271.89,2683.63c0,31.76-25.77,57.53-57.53,57.53h-553.21c-2.32,0-4.19,1.87-4.19,4.19h0v4.57c0,2.32,1.87,4.19,4.19,4.19h556.13c39.03,0,70.64-31.69,70.64-70.79v-.37c-.82-39.25-33.04-70.49-72.21-70.27h-554.56c-2.32,0-4.19,1.87-4.19,4.19h0v4.57c0,2.32,1.87,4.27,4.19,4.27h551.78c32.06,.07,58.2,25.77,58.95,57.83v.08Z"/>
        <polygon class="cls-17" points="3211.59 2667.45 3211.59 2718.47 3193.09 2700.04 3175.18 2717.94 3175.18 2667.45 3211.59 2667.45"/>
      </g>
      <rect class="cls-17" x="2487.74" y="2904.32" width="682.05" height="109.82"/>
      <rect class="cls-6" x="2487.74" y="2904.32" width="682.05" height="109.82"/>
      <polygon class="cls-10" points="2487.74 2933.38 2487.74 2924.39 2954.72 2928.14 2487.74 2933.38"/>
      <polygon class="cls-10" points="2487.74 2971.81 2487.74 2964.92 2697.41 2972.41 2487.74 2971.81"/>
      <polygon class="cls-10" points="2487.74 2997.51 2487.74 2988.67 2825.73 2993.76 2487.74 2997.51"/>
      <path class="cls-10" d="M3017.35,2904.09l9.66,82.03-11.54-12.66c-3.9,14.98-11.24,28.84-21.42,40.45-7.34-9.59-13.18-20.23-17.38-31.54l-318.52-3.67,315.52-6.97c-.97-4.42-1.5-8.99-1.57-13.56,0-3.9,.37-7.72,1.12-11.54l-467.36-1.12,468.26-3.67c1.65-6.14,3.97-12.14,6.89-17.75-6.67-6.07-15.43-9.44-24.42-9.44h-468.78v-10.64h529.61l-.08,.07Z"/>
      <path class="cls-17" d="M3006.79,2958.55c0,27.42-22.32,49.67-49.74,49.59h-477.25c-2.02,0-3.67,1.65-3.67,3.67h0v3.9c0,2.02,1.65,3.67,3.67,3.67h742.43c33.71,0,60.98-27.34,60.9-61.05v-.37c-.82-33.86-28.62-60.83-62.47-60.45h-740.86c-2.02,0-3.67,1.65-3.67,3.67v3.9c0,2.02,1.65,3.67,3.67,3.67h475.75c27.72,0,50.41,22.02,51.16,49.74l.07,.08Z"/>
      <path class="cls-10" d="M3006.79,2958.55c0,27.42-22.32,49.67-49.74,49.59h-477.25c-2.02,0-3.67,1.65-3.67,3.67h0v3.9c0,2.02,1.65,3.67,3.67,3.67h742.43c33.71,0,60.98-27.34,60.9-61.05v-.37c-.82-33.86-28.62-60.83-62.47-60.45h-740.86c-2.02,0-3.67,1.65-3.67,3.67v3.9c0,2.02,1.65,3.67,3.67,3.67h475.75c27.72,0,50.41,22.02,51.16,49.74l.07,.08Z"/>
      <path class="cls-17" d="M3006.79,2958.55c0,27.42-22.32,49.67-49.74,49.59h-477.25c-2.02,0-3.67,1.65-3.67,3.67h0v3.9c0,2.02,1.65,3.67,3.67,3.67h479.8c33.63,0,60.9-27.27,60.9-60.9v-.52c-.82-33.86-28.62-60.83-62.47-60.45h-478.22c-2.02,0-3.67,1.65-3.67,3.67v3.9c0,2.02,1.65,3.67,3.67,3.67h475.75c27.72,0,50.41,22.02,51.16,49.74l.07,.08Z"/>
      <path class="cls-8" d="M3006.79,2958.55c0,27.42-22.32,49.67-49.74,49.59h-477.25c-2.02,0-3.67,1.65-3.67,3.67h0v3.9c0,2.02,1.65,3.67,3.67,3.67h479.8c33.63,0,60.9-27.27,60.9-60.9v-.52c-.82-33.86-28.62-60.83-62.47-60.45h-478.22c-2.02,0-3.67,1.65-3.67,3.67v3.9c0,2.02,1.65,3.67,3.67,3.67h475.75c27.72,0,50.41,22.02,51.16,49.74l.07,.08Z"/>
      <rect class="cls-17" x="2459.65" y="2763.26" width="814.42" height="131.09"/>
      <rect class="cls-3" x="2459.65" y="2763.26" width="814.42" height="131.09"/>
      <polygon class="cls-10" points="2459.65 2797.95 2459.65 2787.23 3017.2 2791.73 2459.65 2797.95"/>
      <polygon class="cls-10" points="2459.65 2843.87 2459.65 2835.63 2709.99 2844.61 2459.65 2843.87"/>
      <polygon class="cls-10" points="2459.65 2874.58 2459.65 2863.94 2863.26 2870.08 2459.65 2874.58"/>
      <path class="cls-10" d="M3091.96,2763.26l11.84,97.68-13.78-14.83c-4.72,17.9-13.48,34.38-25.62,48.32-8.76-11.39-15.73-24.12-20.68-37.6l-380.32-4.34,376.79-8.24c-1.12-5.32-1.72-10.79-1.8-16.26,0-4.64,.45-9.29,1.35-13.78l-558.08-1.35,559.12-4.34c1.95-7.34,4.72-14.53,8.24-21.27-8.02-7.19-18.35-11.24-29.14-11.16h-560.1v-12.81h632.16Z"/>
      <path class="cls-17" d="M3079.22,2828.06c0,32.74-26.59,59.25-59.33,59.25h-569.61c-2.4,0-4.34,2.02-4.34,4.42v4.72c0,2.4,1.95,4.34,4.34,4.34h842.13c40.23,0,72.81-32.66,72.74-72.89v-.45c-1.2-40.45-34.61-72.44-75.06-71.84h-839.89c-2.4,0-4.34,1.95-4.34,4.34h0v4.72c0,2.4,1.95,4.34,4.34,4.42h568.11c32.89,0,59.78,26.14,60.9,59.03v-.07Z"/>
      <path class="cls-17" d="M3079.22,2828.06c0,32.74-26.59,59.25-59.33,59.25h-569.61c-2.4,0-4.34,2.02-4.34,4.42v4.72c0,2.4,1.95,4.34,4.34,4.34h572.91c40.23,0,72.81-32.66,72.74-72.89v-.45c-1.2-40.15-34.23-72.06-74.39-71.84h-571.26c-2.4,0-4.34,1.95-4.34,4.34h0v4.72c0,2.4,1.95,4.34,4.34,4.42h568.11c32.89,0,59.78,26.14,60.9,59.03l-.07-.07Z"/>
      <path class="cls-5" d="M3079.22,2828.06c0,32.74-26.59,59.25-59.33,59.25h-569.61c-2.4,0-4.34,2.02-4.34,4.42v4.72c0,2.4,1.95,4.34,4.34,4.34h572.91c40.23,0,72.81-32.66,72.74-72.89v-.45c-1.2-40.15-34.23-72.06-74.39-71.84h-571.26c-2.4,0-4.34,1.95-4.34,4.34h0v4.72c0,2.4,1.95,4.34,4.34,4.42h568.11c32.89,0,59.78,26.14,60.9,59.03l-.07-.07Z"/>
      <g>
        <rect class="cls-17" x="2519.27" y="2520.03" width="564.74" height="90.94"/>
        <rect class="cls-6" x="2519.27" y="2520.03" width="564.74" height="90.94"/>
        <polygon class="cls-10" points="2519.27 2544.08 2519.27 2536.66 2905.96 2539.73 2519.27 2544.08"/>
        <polygon class="cls-10" points="2519.27 2575.91 2519.27 2570.22 2692.92 2576.44 2519.27 2575.91"/>
        <polygon class="cls-10" points="2519.27 2597.19 2519.27 2589.85 2799.14 2594.12 2519.27 2597.19"/>
        <path class="cls-10" d="M2957.8,2520.03l8.17,67.79-9.59-10.34c-3.22,12.36-9.36,23.9-17.75,33.48-6.07-7.94-10.94-16.7-14.38-26.07l-263.76-3,261.28-5.77c-.82-3.67-1.2-7.49-1.27-11.24,0-3.22,.3-6.44,.9-9.59l-387.06-.97,387.73-3c1.35-5.09,3.3-10.04,5.69-14.76-5.54-5.02-12.73-7.72-20.23-7.79h-388.41v-8.91l438.52,.15h.15Z"/>
        <path class="cls-23" d="M2949.11,2564.9c0,22.7-18.43,41.13-41.2,41.13h-395.15c-1.65,0-3,1.35-3,3h0v3.22c0,1.65,1.35,3,3,3h614.78c27.87,0,50.41-22.55,50.49-50.34v-.45c-.67-28.02-23.75-50.34-51.76-50.04h-613.51c-1.65,0-3,1.42-3,3.07v3.22c0,1.65,1.35,3,3,3h393.95c22.92,0,41.72,18.2,42.4,41.2h0Z"/>
        <path class="cls-8" d="M2949.11,2564.9c0,22.7-18.43,41.13-41.2,41.13h-395.15c-1.65,0-3,1.35-3,3h0v3.22c0,1.65,1.35,3,3,3h614.78c27.87,0,50.41-22.55,50.49-50.34v-.45c-.67-28.02-23.75-50.34-51.76-50.04h-613.51c-1.65,0-3,1.42-3,3.07v3.22c0,1.65,1.35,3,3,3h393.95c22.92,0,41.72,18.2,42.4,41.2h0Z"/>
        <path class="cls-23" d="M2949.11,2564.9c0,22.7-18.43,41.13-41.2,41.13h-395.15c-1.65,0-3,1.35-3,3h0v3.22c0,1.65,1.35,3,3,3h397.32c27.87,0,50.41-22.55,50.49-50.34v-.45c-.67-28.02-23.75-50.26-51.76-50.04h-396.05c-1.65,0-3,1.42-3,3.07v3.22c0,1.65,1.35,3,3,3h393.95c22.92,0,41.72,18.2,42.4,41.2h0Z"/>
        <path class="cls-7" d="M2949.11,2564.9c0,22.7-18.43,41.13-41.2,41.13h-395.15c-1.65,0-3,1.35-3,3h0v3.22c0,1.65,1.35,3,3,3h397.32c27.87,0,50.41-22.55,50.49-50.34v-.45c-.67-28.02-23.75-50.26-51.76-50.04h-396.05c-1.65,0-3,1.42-3,3.07v3.22c0,1.65,1.35,3,3,3h393.95c22.92,0,41.72,18.2,42.4,41.2h0Z"/>
      </g>
    </g>
    <g id="freepik--freepik--Books--inject-2-2--inject-26">
      <polygon class="cls-10" points="756.95 2888.51 479.49 2888.51 479.49 2875.63 756.73 2875.63 756.95 2888.51"/>
      <polygon class="cls-10" points="757.03 2910.31 757.03 2899.6 1314.65 2904.09 757.03 2910.31"/>
      <g>
        <rect class="cls-17" x="448.1" y="2878.77" width="287.05" height="124.5"/>
        <rect class="cls-3" x="448.1" y="2878.77" width="287.05" height="124.5"/>
        <polygon class="cls-10" points="712.16 2901.55 473.94 2906.64 712.16 2911.73 712.16 2901.55"/>
        <polygon class="cls-10" points="712.16 2947.62 459.86 2951.89 712.16 2955.48 712.16 2947.62"/>
        <polygon class="cls-10" points="712.16 2974.51 462.11 2979.6 712.16 2984.62 712.16 2974.51"/>
        <polygon class="cls-10" points="448.18 2919.3 689.98 2926.64 448.18 2931.66 448.18 2919.3"/>
        <path class="cls-23" d="M1088.73,2940.35c0,31.16-25.24,56.33-56.41,56.41H434.84c-2.25,0-4.12,1.87-4.12,4.12h0v4.49c0,2.32,1.87,4.12,4.12,4.12h600.55c38.28,0,69.22-31.09,69.22-69.37v-.37c-.82-38.43-32.36-69.07-70.79-68.84H434.84c-2.25,0-4.12,1.87-4.12,4.12h0v4.49c0,2.32,1.87,4.19,4.12,4.19h595.76c31.54-.07,57.38,25.09,58.13,56.63h0Z"/>
        <path class="cls-7" d="M1088.73,2940.35c0,31.16-25.24,56.33-56.41,56.41H434.84c-2.25,0-4.12,1.87-4.12,4.12h0v4.49c0,2.32,1.87,4.12,4.12,4.12h600.55c38.28,0,69.22-31.09,69.22-69.37v-.37c-.82-38.43-32.36-69.07-70.79-68.84H434.84c-2.25,0-4.12,1.87-4.12,4.12h0v4.49c0,2.32,1.87,4.19,4.12,4.19h595.76c31.54-.07,57.38,25.09,58.13,56.63h0Z"/>
        <path class="cls-17" d="M1306.56,2941.1h0c0,34.38-27.87,62.32-62.25,62.4H712.01v-124.72h531.86c34.38-.22,62.47,27.49,62.7,61.95v.37Z"/>
        <path class="cls-6" d="M712.01,2878.77v124.72h532.16c34.46,0,62.4-27.94,62.4-62.4s-27.94-62.4-62.4-62.4H712.01v.07Z"/>
        <polygon class="cls-10" points="712.16 2955.48 712.16 2947.62 950.22 2956.16 712.16 2955.48"/>
        <polygon class="cls-10" points="712.16 2984.62 712.16 2974.51 1096.07 2980.43 712.16 2984.62"/>
        <path class="cls-10" d="M1245.14,2890.91c10.26,0,20.08,3.82,27.72,10.71-3.3,6.44-5.92,13.26-7.79,20.23l-531.86,4.12,530.88,1.35c-.82,4.34-1.27,8.69-1.27,13.11,0,5.17,.6,10.34,1.8,15.36l-358.37,7.87,361.74,4.12c3.07,8.69,7.12,16.93,11.99,24.72,28.32-19.63,35.36-58.5,15.73-86.82-11.61-16.78-30.71-26.82-51.16-26.89H712.01v12.14l533.13-.15v.15Z"/>
        <path class="cls-23" d="M1301.7,2940.35c0,31.16-25.24,56.33-56.41,56.41H703.17c-2.25,0-4.12,1.87-4.12,4.12h0v4.49c0,2.32,1.87,4.12,4.12,4.12h544.97c38.28,0,69.22-31.09,69.22-69.37v-.37c-.82-38.43-32.36-69.07-70.79-68.84H703.17c-2.25,0-4.12,1.87-4.12,4.12h0v4.49c0,2.32,1.87,4.19,4.12,4.19h540.7c31.46,.07,57.08,25.24,57.76,56.63h.07Z"/>
        <polygon class="cls-17" points="1242.59 2924.54 1242.59 2974.51 1224.46 2956.45 1206.93 2973.98 1206.93 2924.54 1242.59 2924.54"/>
      </g>
      <g>
        <rect class="cls-17" x="687.29" y="2673.3" width="484.29" height="77.98"/>
        <rect class="cls-3" x="687.29" y="2673.3" width="484.29" height="77.98"/>
        <polygon class="cls-10" points="1171.58 2693.97 1171.58 2687.6 840.03 2690.23 1171.58 2693.97"/>
        <polygon class="cls-10" points="1171.58 2721.24 1171.58 2716.37 1022.73 2721.69 1171.58 2721.24"/>
        <polygon class="cls-10" points="1171.58 2739.52 1171.58 2733.15 931.57 2736.82 1171.58 2739.52"/>
        <path class="cls-10" d="M795.53,2673.3l-7.04,58.05,8.24-8.84c2.77,10.64,8.02,20.45,15.21,28.77,5.24-6.82,9.36-14.31,12.29-22.4l226.15-2.62-224.05-4.87c.67-3.15,1.05-6.37,1.05-9.66,0-2.77-.3-5.47-.75-8.24l331.85-.82-332.45-2.62c-1.12-4.34-2.77-8.61-4.87-12.66,4.72-4.27,10.94-6.67,17.3-6.67h333.05v-7.64h-376.05l.08,.22Z"/>
        <path class="cls-17" d="M803.17,2711.8c0,19.48,15.81,35.21,35.28,35.21h338.74c1.42,0,2.62,1.2,2.62,2.62v2.77c0,1.42-1.12,2.62-2.62,2.62h-500.77c-23.9,0-43.3-19.4-43.3-43.37v-.22c.75-24.05,20.6-43.07,44.65-42.7h499.42c1.42,0,2.62,1.12,2.62,2.62h0v2.77c0,1.42-1.12,2.62-2.62,2.62h-337.84c-19.55,0-35.58,15.58-36.18,35.06Z"/>
        <path class="cls-7" d="M803.17,2711.8c0,19.48,15.81,35.21,35.28,35.21h338.74c1.42,0,2.62,1.2,2.62,2.62v2.77c0,1.42-1.12,2.62-2.62,2.62h-500.77c-23.9,0-43.3-19.4-43.3-43.37v-.22c.75-24.05,20.6-43.07,44.65-42.7h499.42c1.42,0,2.62,1.12,2.62,2.62h0v2.77c0,1.42-1.12,2.62-2.62,2.62h-337.84c-19.55,0-35.58,15.58-36.18,35.06Z"/>
        <path class="cls-17" d="M803.17,2711.8c0,19.48,15.81,35.21,35.28,35.21h338.74c1.42,0,2.62,1.2,2.62,2.62v2.77c0,1.42-1.12,2.62-2.62,2.62h-340.69c-23.9,0-43.3-19.4-43.3-43.37v-.22c.75-23.9,20.38-42.85,44.27-42.7h339.71c1.42,0,2.62,1.12,2.62,2.62h0v2.77c0,1.42-1.12,2.62-2.62,2.62h-337.84c-19.55,0-35.58,15.58-36.18,35.06Z"/>
        <path class="cls-5" d="M803.17,2711.8c0,19.48,15.81,35.21,35.28,35.21h338.74c1.42,0,2.62,1.2,2.62,2.62v2.77c0,1.42-1.12,2.62-2.62,2.62h-340.69c-23.9,0-43.3-19.4-43.3-43.37v-.22c.75-23.9,20.38-42.85,44.27-42.7h339.71c1.42,0,2.62,1.12,2.62,2.62h0v2.77c0,1.42-1.12,2.62-2.62,2.62h-337.84c-19.55,0-35.58,15.58-36.18,35.06Z"/>
      </g>
      <g>
        <rect class="cls-17" x="532.67" y="2756.37" width="669.62" height="107.79"/>
        <rect class="cls-6" x="532.67" y="2756.37" width="669.62" height="107.79"/>
        <polygon class="cls-10" points="532.6 2784.91 532.6 2776.07 991.12 2779.82 532.6 2784.91"/>
        <polygon class="cls-10" points="532.6 2822.67 532.6 2815.92 738.45 2823.27 532.6 2822.67"/>
        <polygon class="cls-10" points="532.6 2847.91 532.6 2839.22 864.45 2844.24 532.6 2847.91"/>
        <path class="cls-10" d="M1052.55,2756.37l9.74,80.38-11.39-12.29c-3.9,14.68-11.09,28.32-21.05,39.7-7.19-9.36-12.96-19.85-17-30.94l-312.75-3.6,309.75-6.82c-.97-4.42-1.42-8.84-1.5-13.33,0-3.82,.37-7.64,1.05-11.39l-458.9-1.2,459.72-3.6c1.65-6.07,3.9-11.91,6.74-17.45-6.59-5.92-15.13-9.21-23.97-9.21h-460.54v-10.56l519.95,.15,.15,.15Z"/>
        <path class="cls-17" d="M1042.28,2809.63c0,26.97-21.87,48.77-48.84,48.77h-468.56c-1.95,0-3.6,1.57-3.6,3.6h0v3.9c0,1.95,1.57,3.6,3.6,3.6h728.94c33.04,0,59.78-26.67,59.85-59.7v-.6c-.75-33.26-28.09-59.7-61.35-59.4H524.88c-1.95,0-3.6,1.65-3.6,3.6v3.9c0,1.95,1.57,3.6,3.6,3.6h467.14c27.19,0,49.52,21.65,50.26,48.84v-.08Z"/>
        <path class="cls-17" d="M1042.28,2809.63c0,26.97-21.87,48.77-48.84,48.77h-468.56c-1.95,0-3.6,1.57-3.6,3.6h0v3.9c0,1.95,1.57,3.6,3.6,3.6h471.11c33.04,0,59.78-26.67,59.85-59.7v-.6c-.82-33.18-28.17-59.63-61.35-59.4h-469.53c-1.95,0-3.6,1.65-3.6,3.6v3.9c0,1.95,1.57,3.6,3.6,3.6h467.14c27.19,0,49.52,21.65,50.26,48.84l-.07-.08Z"/>
      </g>
    </g>
    <g id="freepik--freepik--Globe--inject-2--inject-26">
      <rect class="cls-23" x="2813.97" y="2301.52" width="39.18" height="128.92"/>
      <g class="cls-20">
        <rect class="cls-2" x="2813.97" y="2301.52" width="39.18" height="128.92"/>
      </g>
      <path class="cls-23" d="M2833.07,2322.27c-60.98,0-121.05-15.06-174.76-43.9l18.58-34.53c161.88,86.52,363.24,25.39,449.76-136.49,42.1-78.8,50.71-171.24,23.9-256.49-10.49-33.78-26.44-65.62-47.19-94.24-29.66-41.2-68.32-75.06-113.04-99.03l18.5-34.53c20.6,11.09,40.15,24.05,58.43,38.73,25.77,20.82,48.62,44.95,67.94,71.84,23.15,32.06,40.98,67.64,52.74,105.4,61.73,195.74-46.89,404.44-242.63,466.16-36.26,11.46-74.09,17.23-112.14,17.23v-.15h-.08Z"/>
      <g class="cls-19">
        <path class="cls-2" d="M2833.07,2322.27c-60.98,0-121.05-15.06-174.76-43.9l18.58-34.53c161.88,86.52,363.24,25.39,449.76-136.49,42.1-78.8,50.71-171.24,23.9-256.49-10.49-33.78-26.44-65.62-47.19-94.24-29.66-41.2-68.32-75.06-113.04-99.03l18.5-34.53c20.6,11.09,40.15,24.05,58.43,38.73,25.77,20.82,48.62,44.95,67.94,71.84,23.15,32.06,40.98,67.64,52.74,105.4,61.73,195.74-46.89,404.44-242.63,466.16-36.26,11.46-74.09,17.23-112.14,17.23v-.15h-.08Z"/>
      </g>
      <path class="cls-23" d="M2645.65,2311.03c-1.65,0-3.22-.37-4.64-1.2-4.64-2.55-6.44-8.31-3.97-13.03l375.82-701.15c2.55-4.79,8.46-6.59,13.26-4.05,4.79,2.55,6.59,8.46,4.05,13.26h0l-375.9,700.85c-1.65,3.22-5.02,5.24-8.61,5.32h0Z"/>
      <g class="cls-16">
        <path class="cls-2" d="M2645.65,2311.03c-1.65,0-3.22-.37-4.64-1.2-4.64-2.55-6.44-8.31-3.97-13.03l375.82-701.15c2.55-4.79,8.46-6.59,13.26-4.05,4.79,2.55,6.59,8.46,4.05,13.26h0l-375.9,700.85c-1.65,3.22-5.02,5.24-8.61,5.32h0Z"/>
      </g>
      <path class="cls-23" d="M2761.91,2420.93h143.3c9.59,0,17.38,7.79,17.38,17.38h0v31.99h-177.99v-31.99c0-9.59,7.72-17.3,17.3-17.38Z"/>
      <path class="cls-17" d="M2848.28,1664.42c158.06,8.09,279.71,142.85,271.55,300.91-8.09,158.06-142.85,279.71-300.91,271.55-158.06-8.09-279.71-142.85-271.55-300.91h0c8.09-158.13,142.85-279.71,300.91-271.55h0Z"/>
      <path class="cls-4" d="M3000.57,1717.83c-.45-.22-.82-.45-1.27-.75-.82-.67-1.65-1.27-2.62-1.8-11.91-6.52-8.54,16.55-19.63,21.72-11.01,5.24-30.49-4.19-28.17-11.01s-20-25.69-26.14-28.69c-9.96-3.6-20.9,1.57-24.5,11.54-.75,2.1-1.12,4.27-1.12,6.52-.9,19.63,9.89,31.24,6.89,37.16-3,5.92-2.92,7.79-22.7,17.23s-34.08-2.62-46.07,8.17,3.52,16.78-1.27,42.92c-4.79,26.14-11.84,7.42-26.14,10.19-14.31,2.77-6.14-14.46-4.34-24.5,1.8-10.04-13.03-13.03-19.63-13.86s-22.85-2.77-20.75-23c2.1-20.23,1.05-39.18-26.74-37.6-14.31,.9-22.1-19.63-26.14-40.23-73.26,34.91-128.39,99.18-151.69,176.94,1.5-.3,2.77,1.8,4.87,6.97,6.52,16.33,12.58,32.66,20.9,42.62,7.49,8.02,9.96,19.4,6.52,29.81-3.45,8.02-20.3,13.03-20.68,18.65-.3,5.54-16.11,13.03-18.65,18.13-.45,1.2-1.57,1.87-2.77,1.8,9.96,78.66,52.21,149.67,116.56,195.96,7.12-18.58,19.63-33.26,27.94-33.71,17.53-.9,71.54-9.44,51.69-33.33-19.85-23.82-41.05-45.69-41.05-45.69,4.12-6.29,8.84-12.21,14.01-17.68,3.22-2.02-7.19-7.94,11.01-9.96,18.2-1.95,19.63-2.1,11.99-10.86s-20.23-2.1-11.91-13.03c8.39-10.94,17.53-19.63,26.52-7.42,8.99,12.14,3.52,18.65,6.52,22.17,3,3.6,29.96-1.95,29.96-1.95,0,0,6.97,9.74,3.97,11.91-4.94,5.77-9.44,11.91-13.48,18.35-2.17,6.07-5.77,11.61-10.41,16.11-5.47,3.22,15.06,24.05,21.2,27.27,6.14,3.22,8.69,5.84,14.01,4.42,5.32-1.35,15.58-12.44,19.25-15.73,3.75-3.3,26.14,4.87,26.14,4.87,8.39,4.87,16.33,10.56,23.6,17.08,7.42,7.42,19.03,8.69,27.87,3.15,4.64-4.19,4.34-15.58,13.03-11.61,8.69,3.97,11.61,7.94,17.6,29.06,5.99,21.12,41.72,52.06,37.31,65.1,26.44-14.53,50.34-33.26,70.86-55.36-25.24-8.39-34.68-18.13-38.5-23.75-4.87-7.27-2.02-7.34,.75-19.63,2.77-12.29,25.77-19.63,29.51-22.92,3.75-3.3,21.65-25.69,30.49-28.02,8.84-2.32,8.17-14.08,8.17-14.08,0,0,1.65,3.07,5.24-4.72s-.3-15.73,11.54-26.52c7.64-5.84,16.63-9.89,26.14-11.61,1.57-9.81,2.55-19.78,3.07-29.74,.9-17.45,.22-34.91-2.1-52.29l-31.09,11.84c-7.27,.15-14.53-.6-21.65-2.1-3.37-1.95-19.63-12.44-32.14-5.99-12.51,6.37-13.78-4.27-37.31-8.09-23.52-3.82,11.54-37.08,17.08-42.1,5.54-5.02,6.52-2.32,22.4-10.26,15.88-7.94,13.03-20.15,13.03-20.15-9.59-13.93-20.9-26.67-33.63-37.9-15.43-12.14,6.52-13.41,44.72-24.42-16.7-21.2-36.41-40-58.43-55.66l.37,.07Zm-104.5,362.56c-5.47,8.31-13.03-1.65-13.03-1.65-22.25-6.52-24.42-24.65-16.85-31.46,7.57-6.89,11.31-30.26,23.22-20.9,9.59,7.12,19.63,13.71,29.96,19.63,0,0,13.03-33.71,13.63-2.32,.6,31.39,18.43,21.8,.37,31.39s-31.69-3.15-37.16,5.17l-.15,.22v-.07Zm87.04,8.46c.07,8.02-.82,16.03-2.7,23.75l-16.7,8.54c-12.51-10.41-7.64-26.14-.82-27.57,6.82-1.42,19.48-14.01,20.45-4.94l-.22,.22h0Zm-30.64-242.18c4.34,8.54-8.91,14.08-23.75,35.73-14.76,21.65-23.82,3.97-23.82,3.97,0,0-29.89-23.9-20.15-34.38,9.74-10.49,2.4-24.27,16.78-32.21,8.91-4.94,17.83-.67,26.14,8.54,8.31,9.21,20.68,9.59,24.94,18.13l-.15,.22h0Z"/>
      <path class="cls-8" d="M2923.11,1678.65c4.12,86.22-23.52,179.33-84.12,259.26-67.12,88.54-160.61,142.48-253.87,156.04-78.88-137.31-31.46-312.6,105.85-391.48,70.49-40.45,154.84-49.14,232.14-23.82h0Z"/>
      <g class="cls-19">
        <path class="cls-2" d="M2761.91,2420.93h143.3c9.59,0,17.38,7.79,17.38,17.38h0v31.99h-177.99v-31.99c0-9.59,7.72-17.3,17.3-17.38Z"/>
      </g>
      <path class="cls-23" d="M2684.6,2460.93h297.99c11.16,0,20.23,9.06,20.23,20.23h0v33.26h-338.52v-33.26c0-11.16,9.06-20.23,20.23-20.23h.07Z"/>
      <g class="cls-16">
        <path class="cls-2" d="M2684.6,2460.93h297.99c11.16,0,20.23,9.06,20.23,20.23h0v33.26h-338.52v-33.26c0-11.16,9.06-20.23,20.23-20.23h.07Z"/>
      </g>
    </g>
  </g>
  <g id="freepik--Exam--inject-26">
    <g>
      <g>
        <rect class="cls-17" x="410.83" y="395.24" width="1337.14" height="1854.16" transform="translate(-141.92 129.84) rotate(-6.46)"/>
        <rect class="cls-3" x="410.83" y="395.24" width="1337.14" height="1854.16" transform="translate(-141.92 129.84) rotate(-6.46)"/>
      </g>
      <g>
        <path class="cls-17" d="M621.67,670.96l3.75,32.81-120.45,13.63-17-150.04,117.68-13.33,3.75,32.81-75.66,8.54,2.85,25.32,66.67-7.57,3.6,31.69-66.67,7.57,3.07,27.42,78.43-8.91v.07Z"/>
        <path class="cls-17" d="M742.35,690.52l-36.33-43-25.39,49.96-48.47,5.47,46.07-82.03-60.68-68.24,47.79-5.39,34.91,39.93,24.65-46.67,45.84-5.17-44.12,78.36,64.5,71.24-48.84,5.54h.07Z"/>
        <path class="cls-17" d="M894.64,643.77l-63.45,7.19-8.46,30.49-43.3,4.87,49.22-157.53,41.8-4.72,83.45,142.48-44.12,5.02-15.06-27.79h-.07Zm-15.96-29.89l-24.72-45.84-13.86,50.19,38.58-4.34h0Z"/>
        <path class="cls-17" d="M1101.31,649.84l-9.44-79.48-31.24,69.07-18.88,2.17-45.47-58.2,8.76,77.38-39.25,4.42-17-150.04,34.91-3.97,62.55,80.6,41.65-92.36,34.91-3.97,17.45,149.97-39.03,4.42h.07Z"/>
      </g>
      <rect class="cls-11" x="1203.62" y="491.82" width="289.38" height="25.84" transform="translate(-48.23 154.9) rotate(-6.46)"/>
      <rect class="cls-11" x="559.86" y="787.24" width="900.49" height="33.56" transform="translate(-84.05 118.75) rotate(-6.46)"/>
      <rect class="cls-11" x="1213.67" y="546.81" width="232.44" height="25.84" transform="translate(-54.53 153.18) rotate(-6.46)"/>
      <rect class="cls-11" x="480.89" y="839.43" width="39.1" height="39.1" transform="translate(-93.47 61.76) rotate(-6.46)"/>
      <rect class="cls-11" x="619.63" y="1315.16" width="900.49" height="33.56" transform="translate(-143.06 128.83) rotate(-6.46)"/>
      <rect class="cls-11" x="540.73" y="1367.35" width="39.1" height="39.1" transform="translate(-152.48 71.84) rotate(-6.46)"/>
      <rect class="cls-11" x="670.97" y="1767.8" width="900.49" height="33.56" transform="translate(-193.66 137.48) rotate(-6.46)"/>
      <rect class="cls-11" x="591.93" y="1820.01" width="39.1" height="39.1" transform="translate(-203.09 80.48) rotate(-6.46)"/>
      <g>
        <rect class="cls-11" x="684.53" y="886.03" width="794.79" height="33.56" transform="translate(-94.7 127.46) rotate(-6.46)"/>
        <rect class="cls-11" x="694.97" y="991.83" width="315.22" height="33.56" transform="translate(-108.06 102.33) rotate(-6.46)"/>
        <path class="cls-11" d="M582.41,993.67l-6.67-58.8,58.8-6.67,6.67,58.8-58.8,6.67Zm-.45-53.86l5.39,47.64,47.64-5.39-5.39-47.64-47.64,5.39Z"/>
      </g>
      <g>
        <rect class="cls-11" x="708.29" y="1095.89" width="794.79" height="33.56" transform="translate(-118.17 131.46) rotate(-6.46)"/>
        <rect class="cls-11" x="718.72" y="1201.62" width="315.22" height="33.56" transform="translate(-131.52 106.33) rotate(-6.46)"/>
        <path class="cls-11" d="M606.16,1203.5l-6.67-58.8,58.8-6.67,6.67,58.8-58.8,6.67Zm-.45-53.86l5.39,47.64,47.64-5.39-5.39-47.64-47.64,5.39Z"/>
      </g>
      <g>
        <rect class="cls-11" x="746.82" y="1436.51" width="794.79" height="33.56" transform="translate(-156.24 137.96) rotate(-6.46)"/>
        <rect class="cls-11" x="758.2" y="1550.7" width="315.22" height="33.56" transform="translate(-170.54 112.99) rotate(-6.46)"/>
        <path class="cls-11" d="M644.74,1544.19l-6.67-58.8,58.8-6.67,6.67,58.8-58.8,6.67Zm-.45-53.86l5.39,47.64,47.64-5.39-5.39-47.64-47.64,5.39Z"/>
        <path class="cls-11" d="M654.1,1626.96l-6.67-58.8,58.8-6.67,6.67,58.8-58.8,6.67Zm-.45-53.86l5.39,47.64,47.64-5.39-5.39-47.64-47.64,5.39h0Z"/>
        <rect class="cls-11" x="767.48" y="1626.9" width="496.95" height="33.56" transform="translate(-178.48 124.74) rotate(-6.46)"/>
        <path class="cls-11" d="M663.92,1713.33l-6.67-58.8,58.8-6.67,6.67,58.8-58.8,6.67Zm-.45-53.86l5.39,47.64,47.64-5.39-5.39-47.64-47.64,5.39Z"/>
      </g>
      <g>
        <rect class="cls-11" x="796.58" y="1875.57" width="794.79" height="33.56" transform="translate(-205.33 146.35) rotate(-6.46)"/>
        <rect class="cls-11" x="807.96" y="1989.83" width="315.22" height="33.56" transform="translate(-219.63 121.38) rotate(-6.46)"/>
        <path class="cls-11" d="M694.48,1983.23l-6.67-58.8,58.8-6.67,6.67,58.8-58.8,6.67Zm-.45-53.86l5.39,47.64,47.64-5.39-5.39-47.64-47.64,5.39Z"/>
        <path class="cls-11" d="M703.84,2066l-6.67-58.8,58.8-6.67,6.67,58.8-58.8,6.67Zm-.45-53.86l5.39,47.64,47.64-5.39-5.39-47.64-47.64,5.39Z"/>
        <rect class="cls-11" x="817.16" y="2065.96" width="496.95" height="33.56" transform="translate(-227.56 133.12) rotate(-6.46)"/>
        <path class="cls-11" d="M713.66,2152.38l-6.67-58.8,58.8-6.67,6.67,58.8-58.8,6.67Zm-.45-53.86l5.39,47.64,47.64-5.39-5.39-47.64-47.64,5.39Z"/>
      </g>
    </g>
  </g>
  <g id="freepik--Ruler--inject-26">
    <g>
      <path class="cls-17" d="M2577.85,966.33l-231.17,728.05,496.88-363.99-265.7-363.99v-.07Zm41.42,212.22l91.46,121.65-170.79,121.65,79.33-243.23v-.07Z"/>
      <path class="cls-7" d="M2577.85,966.33l-231.17,728.05,496.88-363.99-265.7-363.99v-.07Zm41.42,212.22l91.46,121.65-170.79,121.65,79.33-243.23v-.07Z"/>
      <polygon class="cls-23" points="2602.5 1065.89 2601.45 1064.31 2633.74 1044.24 2634.71 1045.81 2602.5 1065.89"/>
      <polygon class="cls-23" points="2624.45 1097.2 2623.47 1095.63 2655.69 1075.48 2656.66 1077.05 2624.45 1097.2"/>
      <polygon class="cls-23" points="2649.39 1128.44 2648.42 1126.86 2680.63 1106.79 2681.6 1108.36 2649.39 1128.44"/>
      <polygon class="cls-23" points="2671.79 1159.75 2670.74 1158.1 2703.03 1138.03 2704 1139.6 2671.79 1159.75"/>
      <polygon class="cls-23" points="2693.89 1190.16 2692.84 1188.51 2725.13 1168.44 2726.1 1170.01 2693.89 1190.16"/>
      <polygon class="cls-23" points="2715.91 1220.58 2714.94 1219 2747.22 1198.85 2748.2 1200.43 2715.91 1220.58"/>
      <polygon class="cls-23" points="2738.01 1250.99 2737.04 1249.42 2769.32 1229.27 2770.3 1230.91 2738.01 1250.99"/>
      <polygon class="cls-23" points="2760.11 1281.4 2759.14 1279.83 2791.35 1259.68 2792.4 1261.33 2760.11 1281.4"/>
      <polygon class="cls-23" points="2782.21 1311.82 2781.23 1310.24 2813.44 1290.09 2814.42 1291.74 2782.21 1311.82"/>
      <polyline class="cls-7" points="2601.3 1378.11 2593.44 1513.55 2670.52 1457.07 2675.84 1325 2609.62 1372.12"/>
    </g>
  </g>
  <g id="freepik--Speech_Bubble--inject-26" data-name="freepik--Speech Bubble--inject-26">
    <g>
      <g>
        <circle class="cls-17" cx="2206.75" cy="1008.58" r="141.65"/>
        <g>
          <path class="cls-17" d="M2309.9,881.54c-.45,0-.9-.15-1.27-.52-35.51-33.48-89.07-47.42-136.41-35.51-.97,.22-2.02-.37-2.25-1.35-.22-.97,.37-2.02,1.35-2.25,48.54-12.29,103.45,2.02,139.86,36.41,.75,.67,.75,1.87,0,2.62-.37,.37-.9,.6-1.35,.6h.07Z"/>
          <path class="cls-17" d="M2128.92,860.26c-.6,0-1.2-.3-1.57-.82-.6-.9-.3-2.02,.52-2.62,6.52-4.27,14.01-7.27,21.65-8.61,1.05-.22,2.02,.52,2.17,1.5,.15,1.05-.52,2.02-1.5,2.17-7.19,1.27-14.16,4.05-20.23,8.09-.3,.22-.67,.3-1.05,.3h0Z"/>
        </g>
        <path class="cls-17" d="M2132.37,1164.77c0,8.61-6.97,15.66-15.66,15.66s-15.66-6.97-15.66-15.66,6.97-15.66,15.66-15.66,15.66,6.97,15.66,15.66Z"/>
      </g>
      <g>
        <path class="cls-2" d="M2206.98,989.55c10.04,0,18.13,8.17,18.13,18.13s-8.17,18.13-18.13,18.13-18.13-8.17-18.13-18.13,8.17-18.13,18.13-18.13Z"/>
        <g>
          <path class="cls-2" d="M2144.73,989.55c10.04,0,18.13,8.17,18.13,18.13s-8.17,18.13-18.13,18.13-18.13-8.17-18.13-18.13,8.17-18.13,18.13-18.13Z"/>
          <path class="cls-2" d="M2266.9,989.55c10.04,0,18.13,8.17,18.13,18.13s-8.17,18.13-18.13,18.13-18.13-8.17-18.13-18.13,8.17-18.13,18.13-18.13Z"/>
        </g>
      </g>
    </g>
  </g>
  <g id="freepik--Icon--inject-26">
    <g>
      <g>
        <path class="cls-17" d="M1704.48,1013.75c0,18.73-15.21,33.93-33.93,33.93s-33.93-15.21-33.93-33.93,15.21-33.93,33.93-33.93,33.93,15.21,33.93,33.93Z"/>
        <path class="cls-17" d="M1608.52,1056.9c0,13.33-10.79,24.2-24.2,24.2s-24.2-10.79-24.2-24.2,10.79-24.2,24.2-24.2,24.2,10.79,24.2,24.2Z"/>
        <path class="cls-17" d="M1633.69,954.05c0,8.31-6.74,15.13-15.13,15.13s-15.13-6.74-15.13-15.13,6.74-15.13,15.13-15.13,15.13,6.74,15.13,15.13Z"/>
        <circle class="cls-17" cx="1743.36" cy="1039" r="15.13"/>
        <circle class="cls-17" cx="1746.06" cy="969.18" r="20.67"/>
        <path class="cls-17" d="M1715.05,1120.65c0,13.33-10.79,24.2-24.2,24.2s-24.2-10.79-24.2-24.2,10.79-24.2,24.2-24.2,24.2,10.79,24.2,24.2Z"/>
        <polygon class="cls-17" points="1689.05 1117.8 1681.11 1027.23 1660.29 1021.77 1589.57 1052.55 1588.07 1049.18 1659.99 1017.8 1684.63 1024.31 1692.72 1117.5 1689.05 1117.8"/>
        <polygon class="cls-17" points="1735.57 1039.67 1697.14 1030.61 1648.75 996.9 1617.06 955.25 1620.06 952.92 1651.52 994.35 1699.02 1027.38 1736.47 1036.07 1735.57 1039.67"/>
      </g>
      <rect class="cls-17" x="1670.88" y="993.95" width="67.34" height="3.75" transform="translate(-264.65 1135.11) rotate(-34.34)"/>
    </g>
  </g>
  <g id="freepik--Planet--inject-26">
    <g>
      <path class="cls-17" d="M1257.27,1448.83c3.9-11.91,9.21-23.3,15.88-33.86,3-4.87,6.22-9.51,9.81-14.01,9.14-11.76,19.85-22.25,31.91-31.01h0c2.4-1.72,4.57-3.3,7.04-4.87,5.02-3.37,10.34-6.44,15.81-9.06,3.45-1.8,6.97-3.45,10.56-4.87,5.17-2.17,10.49-4.12,15.88-5.69,7.19-2.1,14.46-3.75,21.87-4.79h0c9.14-1.27,18.43-1.87,27.72-1.65,27.42,.52,54.23,8.09,77.76,22.1h.22c6.82,3.97,13.33,8.46,19.4,13.48,2.85,2.32,5.62,4.72,8.31,7.19,2.7,2.47,5.47,5.24,8.09,8.09,1.8,1.87,3.6,3.9,5.32,6.07,2.25,2.62,4.42,5.39,6.44,8.24,4.49,5.92,8.54,12.21,12.14,18.65,.97,1.8,1.95,3.67,2.77,5.47,3,5.92,5.54,12.06,7.72,18.35,.9,2.55,1.72,5.09,2.47,7.64,3.45,11.84,5.47,24.05,6.07,36.33,.22,4.34,.37,8.61,.22,12.96,0,2.25,0,4.42-.3,6.52-.22,3.45-.52,6.89-.97,10.26-.9,6.89-2.25,13.78-4.05,20.53-1.12,4.42-2.47,8.69-4.05,12.96-1.72,5.09-3.75,10.11-6.07,14.98-4.19,8.84-9.21,17.23-14.98,25.09-3.3,4.72-6.97,9.21-10.86,13.48-4.49,4.94-9.21,9.66-14.31,14.01-5.32,4.57-10.86,8.76-16.63,12.58-7.34,4.87-15.06,9.06-23.07,12.66-5.99,2.7-12.21,5.02-18.58,6.97h0c-4.94,1.5-10.04,2.77-15.13,3.82h-.15c-32.14,6.44-65.55,2.85-95.58-10.26h0c-4.27-1.8-8.39-3.9-12.44-6.07-2.85-1.57-5.69-3.22-8.39-4.87-3.45-2.1-6.67-4.34-9.81-6.67-1.65-1.27-3.3-2.47-4.87-3.75-5.77-4.57-11.24-9.51-16.33-14.83-17.23-17.98-30.04-39.78-37.45-63.6-3.67-11.69-5.99-23.75-6.82-36.03-.3-5.09-.45-10.26-.3-15.51,.07-4.87,.45-9.74,1.12-14.61,1.12-11.01,3.37-21.87,6.89-32.36l-.3-.07Z"/>
      <path class="cls-8" d="M1257.27,1448.83c3.9-11.91,9.21-23.3,15.88-33.86,3-4.87,6.22-9.51,9.81-14.01,9.14-11.76,19.85-22.25,31.91-31.01h0c2.4-1.72,4.57-3.3,7.04-4.87,5.02-3.37,10.34-6.44,15.81-9.06,3.45-1.8,6.97-3.45,10.56-4.87,5.17-2.17,10.49-4.12,15.88-5.69,7.19-2.1,14.46-3.75,21.87-4.79h0c9.14-1.27,18.43-1.87,27.72-1.65,27.42,.52,54.23,8.09,77.76,22.1h.22c6.82,3.97,13.33,8.46,19.4,13.48,2.85,2.32,5.62,4.72,8.31,7.19,2.7,2.47,5.47,5.24,8.09,8.09,1.8,1.87,3.6,3.9,5.32,6.07,2.25,2.62,4.42,5.39,6.44,8.24,4.49,5.92,8.54,12.21,12.14,18.65,.97,1.8,1.95,3.67,2.77,5.47,3,5.92,5.54,12.06,7.72,18.35,.9,2.55,1.72,5.09,2.47,7.64,3.45,11.84,5.47,24.05,6.07,36.33,.22,4.34,.37,8.61,.22,12.96,0,2.25,0,4.42-.3,6.52-.22,3.45-.52,6.89-.97,10.26-.9,6.89-2.25,13.78-4.05,20.53-1.12,4.42-2.47,8.69-4.05,12.96-1.72,5.09-3.75,10.11-6.07,14.98-4.19,8.84-9.21,17.23-14.98,25.09-3.3,4.72-6.97,9.21-10.86,13.48-4.49,4.94-9.21,9.66-14.31,14.01-5.32,4.57-10.86,8.76-16.63,12.58-7.34,4.87-15.06,9.06-23.07,12.66-5.99,2.7-12.21,5.02-18.58,6.97h0c-4.94,1.5-10.04,2.77-15.13,3.82h-.15c-32.14,6.44-65.55,2.85-95.58-10.26h0c-4.27-1.8-8.39-3.9-12.44-6.07-2.85-1.57-5.69-3.22-8.39-4.87-3.45-2.1-6.67-4.34-9.81-6.67-1.65-1.27-3.3-2.47-4.87-3.75-5.77-4.57-11.24-9.51-16.33-14.83-17.23-17.98-30.04-39.78-37.45-63.6-3.67-11.69-5.99-23.75-6.82-36.03-.3-5.09-.45-10.26-.3-15.51,.07-4.87,.45-9.74,1.12-14.61,1.12-11.01,3.37-21.87,6.89-32.36l-.3-.07Z"/>
      <path class="cls-10" d="M1257.27,1448.83c5.09,0,10.19,.52,15.13,1.57,7.12,1.5,14.01,4.19,21.2,5.54,9.06,1.65,18.5,1.12,27.64,2.17s18.8,3.97,24.94,10.94c-22.47,1.12-44.8,3.67-66.89,7.57-9.66,1.72-19.33,3.52-28.99,4.42,1.12-11.01,3.45-21.8,6.97-32.21h0Z"/>
      <path class="cls-10" d="M1510.47,1511.6c13.63-1.95,27.42-3,41.28-3,6.22,.15,12.44,.6,18.65,1.42-.22,3.45-.52,6.89-.97,10.26h-1.57c-19.48,.97-39.03-2.02-57.38-8.69h0Z"/>
      <path class="cls-10" d="M1434.06,1460.74c2.55-.67,5.17-.82,7.72-.37,10.41,.75,20.82,.6,31.16-.52,9.06-.75,17.98-1.72,26.89-2.7,6.97-.52,13.86-1.72,20.6-3.6,3.67-1.35,7.42-2.47,11.24-3.3,4.79-.45,9.59-.15,14.23,.9,6.07,1.05,12.14,1.95,18.2,3,3.45,11.84,5.47,24.05,6.07,36.33-4.12-.07-8.24-.6-12.29-1.5-6.89-1.57-13.56-4.57-20.67-5.32-6.29-.67-12.66,.37-19.03,0-6.67-.67-13.33-1.95-19.78-3.75-22.7-5.17-46.52-5.17-68.32-13.11-.45-2.77,1.27-5.47,3.97-6.14v.08Z"/>
      <path class="cls-10" d="M1314.8,1369.72c2.4-1.72,4.57-3.3,7.04-4.87,5.02-3.37,10.34-6.44,15.81-9.06,3.45-1.8,6.97-3.45,10.56-4.87,.75,0,1.42,.37,2.17,.52,35.96,9.66,72.59,16.63,109.59,20.75,19.85,2.25,40.45,3.97,59.4,9.51,2.77,2.62,5.47,5.24,8.09,8.09-20.23-5.02-40.9-8.46-61.65-10.11-17.68-1.12-35.58-.3-53.19-2.02-15.96-1.5-31.84-5.09-47.79-4.27-3.52,.22-7.12,.6-10.64,.82-11.91,.37-23.9-.82-35.51-3.6-1.35-.22-2.62-.52-3.9-.9h0Z"/>
      <path class="cls-10" d="M1412.71,1394.74c15.73-3.22,32.14-1.72,48.17-.22,18.43,2.1,36.93,2.92,55.43,2.25,5.54-.3,10.94-.82,16.48-.97,2.25,2.62,4.42,5.39,6.44,8.24,4.49,5.92,8.54,12.21,12.14,18.65,.97,1.8,1.95,3.6,2.77,5.47-1.65-.22-3.3-.37-4.72-.52-9.44-.75-18.88-1.42-28.24-2.85-7.12-1.05-14.23-2.55-21.2-4.42-5.62-1.42-11.09-3.3-16.41-5.62-4.49-1.95-8.69-4.27-13.18-6.07-5.24-2.1-10.64-3.9-16.11-5.47-13.56-4.12-27.42-8.17-41.57-8.54v.07Z"/>
      <path class="cls-10" d="M1497.43,1409.5c7.19-1.65,14.68,0,21.87-1.42,2.77-.52,5.32-1.5,8.09-2.25,3.9-1.05,7.87-1.72,11.91-1.87,4.49,5.92,8.54,12.21,12.14,18.65-9.06-.75-18.05-2.02-27.04-3.75-4.94-.97-9.89-2.02-14.83-3-2.85-.6-12.66-1.35-14.23-3.37-1.05-1.12,.75-2.55,2.17-3h-.07Z"/>
      <path class="cls-10" d="M1282.89,1400.81c4.87-6.29,10.11-12.14,15.88-17.6,7.94,.75,15.88,2.25,23.52,4.42,6.22,1.8,12.51,3.07,18.95,3.75,8.39,.45,16.7-1.27,25.09-1.42,8.39-.15,17.45,1.35,23.3,7.42-10.86,.67-21.72,1.42-32.59,2.02-18.88,1.12-37.75,1.87-56.63,1.72-5.84,0-11.69-.07-17.53-.3Z"/>
      <path class="cls-10" d="M1326.42,1366.13c-1.12-.37-2.77-.82-4.57-1.2,5.02-3.37,10.34-6.44,15.81-9.06,7.94,2.02,16.03,3.45,24.2,4.27,13.56,1.42,28.17,1.42,39.33,9.44l-17.6-1.87c-11.69-1.72-23.52-2.1-35.28-1.05-4.34,.82-8.76,1.27-13.11,1.27-3-.22-5.92-.82-8.84-1.72l.07-.07Z"/>
      <path class="cls-10" d="M1364.17,1345.23c7.19-2.1,14.46-3.75,21.87-4.79h0c9.14-1.27,18.43-1.87,27.72-1.65,27.42,.6,54.23,8.24,77.76,22.25h.22c6.82,3.97,13.33,8.46,19.4,13.48-10.71,0-25.02-4.19-29.66-4.94-12.14-2.1-24.42-4.19-36.63-6.44-27.04-5.09-54.08-11.16-80.75-17.9h.07Z"/>
      <path class="cls-10" d="M1386.12,1340.36c9.14-1.27,18.43-1.87,27.72-1.65,27.42,.6,54.16,8.31,77.76,22.32-2.1-.6-4.27-.82-6.44-.82s-4.19,.67-6.29,.97c-2.7,.15-5.39,.07-8.09-.15-10.19-.67-20.3-2.17-30.26-4.49-9.06-2.32-17.53-6.07-26.22-9.06-9.14-3.15-18.5-5.54-28.02-7.19l-.15,.08Z"/>
      <path class="cls-10" d="M1310.09,1536.17c1.12-1.87,3.67-2.4,5.84-3,8.91-2.25,16.33-8.17,24.65-11.91,13.33-6.07,28.47-6.59,43.07-6.97,8.17-.37,16.33-.3,24.5,.3,7.12,.82,14.23,2.17,21.2,3.9,15.13,3.52,29.96,7.79,44.8,12.14,27.27,7.94,54.53,16.41,82.48,21.72,1.57,.37,3.15,.75,4.72,1.27-1.72,5.09-3.75,10.11-6.07,14.98-9.06,.3-18.95-1.5-27.27-1.72-24.8-.75-49.29,5.54-73.11,12.73-6.82,2.4-13.93,4.05-21.2,4.72-9.81,.52-19.4-2.25-28.77-4.94-10.94-3.3-21.8-6.52-32.59-9.89-5.69-1.65-11.31-3.75-16.7-6.37-4.57-2.47-8.76-5.47-13.18-8.17-7.12-4.27-14.91-7.34-23-9.21-2.62-.37-5.09-1.27-7.27-2.7-2.32-1.42-3.22-4.34-2.17-6.89h.07Z"/>
      <path class="cls-10" d="M1457.51,1565.53c-9.89,2.1-20,2.77-30.04,2.02-13.03,.15-25.99-1.12-38.73-3.82-9.74-2.7-19.18-6.14-28.32-10.41-5.54-2.4-11.39-5.09-14.61-10.19,30.11-18.2,68.39-15.36,102.63-7.19,21.05,5.02,41.57,11.69,62.1,18.43-1.87-.6-11.01,4.42-13.48,5.02-3.75,.67-7.57,.67-11.31,0-10.26-.6-18.65,3.6-28.32,6.14h.07Z"/>
      <path class="cls-10" d="M1256.23,1547.11c3.67,.22,7.34,.67,10.94,1.42,6.29,1.27,13.78,5.17,13.26,11.54,15.13-.22,31.54-.15,44.05,8.39-5.84,1.42-11.76,2.85-17.6,4.34l150.87,23.9c4.42,.97,8.91,1.27,13.41,.97,9.51-.9,17.68-6.74,26.89-9.06,11.39-2.7,28.99-.3,42.17,5.09-3.3,4.72-6.97,9.21-10.86,13.48-4.49,4.94-9.21,9.66-14.31,14.01-5.32,4.57-10.86,8.76-16.63,12.58-32.44-2.77-64.2-11.61-95.58-20.45,11.69-1.05,23.3-2.02,34.98-3,6.44-.6,13.33-1.27,18.2-5.54-18.95-3.37-37.98-5.99-57.16-7.72-10.86-.97-21.8-1.72-32.66-2.4-18.73-1.12-37.45-2.32-56.11-3.6-1.72-.3-3.52-.07-5.09,.6-1.65,.82-2.32,2.77-1.5,4.42,.75,.82,1.87,1.35,3,1.42l17.45,3.97c5.39,1.2,12.14,4.72,10.49,9.89-9.96,0-19.93-.3-29.96-.52-3.52,0-7.12,0-10.71-.3-17.23-17.98-30.04-39.7-37.45-63.45h-.07Z"/>
      <path class="cls-10" d="M1310.01,1625.54c8.39-1.27,16.85-1.57,25.32-.97,18.88,1.2,37.45,5.54,55.88,9.29,4.94,1.2,10.04,1.8,15.13,1.8,5.69-.15,11.31-1.87,17-1.87,8.91,0,17.38,3.6,25.69,6.67,5.02,1.8,16.93,3.15,26.22,6.07-5.99,2.7-12.21,5.02-18.58,6.97h0s-.3-.07-.45-.15c-11.46-4.19-23.45-6.97-35.66-8.09-26.44-3.75-53.11-7.42-79.63-5.47-2.62,.15-5.17,.52-7.64,1.2-2.85-1.57-5.69-3.22-8.39-4.87-3.45-2.1-6.67-4.34-9.81-6.67-1.8-1.27-3.45-2.47-5.02-3.82l-.08-.07Z"/>
      <path class="cls-10" d="M1482.23,1612.58c14.16-7.34,30.94-7.12,47.12-5.39-4.49,4.94-9.21,9.66-14.31,14.01-11.24-1.57-22.25-4.42-32.81-8.61h0Z"/>
      <path class="cls-10" d="M1345.59,1646.89c23.6-4.12,47.94-1.35,71.09,4.27,8.24,1.57,16.41,3.6,24.5,6.07-32.14,6.44-65.55,2.85-95.58-10.26h0v-.07Z"/>
      <path class="cls-10" d="M1314.88,1629.28c1.57-.3,3.22-.45,4.79-.6,11.09-.97,22.62-1.87,33.33,.97-7.64-1.87-18.2,2.4-28.32,6.22-3.37-2.1-6.59-4.34-9.81-6.67v.07Z"/>
      <path class="cls-10" d="M1250.16,1480.96c-.6,4.87-.97,9.74-1.12,14.61,0,5.24,0,10.41,.3,15.51,3.82,.67,7.64,.75,11.54,.3,17.98-1.27,35.96-2.55,54.01-3.82-5.77-6.29-15.51-6.59-24.05-5.69-8.54,.9-17.6,2.55-25.32-1.42,12.73-8.61,27.87-13.03,43.22-12.51,10.56,.3,20.97,3,31.39,1.95,9.06-.9,18.2-4.64,27.27-3.6,4.42,.67,8.76,1.8,12.96,3.3,45.99,13.26,97.61-12.14,142.33,5.09-27.64,3.15-55.28,6.14-82.92,9.06,11.61,10.49,28.99,9.81,44.42,11.76,17.08,2.1,33.41,8.02,47.94,17.23,4.79,3.67,10.26,6.44,16.03,8.24,4.49,.75,9.06,.75,13.56,0,1.2,0,2.4-.3,3.67-.37,1.8-6.74,3.15-13.56,4.05-20.53,.45-3.37,.75-6.82,.97-10.26,.15-2.17,.22-4.34,.3-6.52,.15-4.34,0-8.69-.22-12.96-.6-12.29-2.62-24.5-6.07-36.33-.75-2.55-1.57-5.09-2.47-7.64-11.09,0-22.4,1.35-33.33-.67-4.57-.82-9.06-2.25-13.48-3-5.09-.75-10.19-1.12-15.36-1.12l-103.3-2.32c-14.31-.3-28.54-.6-42.77-2.32,31.69-7.87,64.42-10.86,97.01-8.84,5.09,.3,10.56,.6,14.91-2.02-15.51-11.31-36.93-6.97-56.03-9.06-8.61-.9-17.08-3.22-25.69-3-7.94,.15-15.73,2.32-23.6,3.22-8.54,.82-17.08,.9-25.62,.22-20.45-.9-40.9-1.87-61.5-2.77-6.74,10.71-12.14,22.17-16.11,34.16-3.52,10.41-5.92,21.2-7.12,32.06l.22,.07Zm77.01-52.59c6.44-1.72,13.11-2.7,19.78-2.77l2.4,2.4c-10.71,4.49-22.55,5.54-33.86,3,3.82-.97,7.72-1.8,11.69-2.62Z"/>
    </g>
  </g>
  <g id="freepik--Clock--inject-26">
    <g>
      <g>
        <circle class="cls-17" cx="1766.62" cy="321.51" r="226.83"/>
        <circle class="cls-9" cx="1766.62" cy="321.51" r="226.83"/>
        <circle class="cls-17" cx="1766.78" cy="298.03" r="226.83"/>
        <circle class="cls-2" cx="1766.88" cy="298.18" r="188.47"/>
        <path d="M1791.3,457.62l-6.89-44.2c.9-.15,1.72-.3,2.62-.45l7.94,44.05c-1.2,.22-2.47,.45-3.67,.6Zm-73.41-5.69c-1.2-.37-2.4-.75-3.6-1.2l14.61-42.25c.82,.3,1.65,.6,2.47,.82l-13.56,42.62h.07Zm144.73-23.97l-26.67-35.96,2.25-1.65,27.27,35.43c-.97,.75-1.95,1.5-2.92,2.17h.07Zm-210.65-16.26c-.9-.9-1.72-1.8-2.62-2.7l32.51-30.71,1.87,1.95-31.84,31.46h.07Zm260.01-43.15l-40.3-19.48,1.12-2.47,40.98,17.98-.45,1.05c-.3,.75-.82,1.8-1.35,2.92Zm-299.56-23.15c-.37-1.2-.75-2.4-1.05-3.6l43.07-12.21c.22,.82,.52,1.72,.75,2.55l-42.77,13.18v.07Zm270.95-51.46c0-.82,0-1.65-.15-2.55l44.65-2.62c.07,1.27,.15,2.55,.15,3.82l-44.72,1.35h.07Zm-231.32-17.38l-43.97-8.39,.67-3.52,43.82,9.14-.52,2.77Zm216.11-36.26l-1.35-2.32,38.43-22.92c.6,1.05,1.27,2.1,1.87,3.15l-38.95,22.1Zm-192.97-14.68l-35.13-27.72c.75-.97,1.5-1.87,2.25-2.85l34.61,28.32-1.72,2.17v.07Zm154.54-25.84c-.75-.45-1.5-.9-2.17-1.35l23.22-38.28c1.05,.67,2.17,1.35,3.22,2.02l-24.2,37.6h-.07Zm-110.42-8.39l-18.2-40.9c1.2-.52,2.32-1.05,3.52-1.5l17,41.35c-.82,.3-1.57,.67-2.32,.97v.07Zm57.61-9.66l-2.7-.22,2.85-44.65c1.27,.07,2.47,.15,3.75,.3l-3.9,44.57Z"/>
      </g>
      <g>
        <path d="M1770.03,306.9s-.67,0-1.05-.15l-85.7-24.2c-2.02-.52-3.15-2.62-2.62-4.64,.52-2.02,2.62-3.15,4.64-2.62l81.2,22.92,5.02-96.71c.07-2.1,1.65-3.67,3.9-3.52,2.1,.07,3.67,1.87,3.52,3.97l-5.24,101.43c0,1.12-.6,2.17-1.57,2.85-.67,.45-1.42,.67-2.17,.67h.07Z"/>
        <path d="M1781.94,298.74c.22,7.79-5.92,14.23-13.71,14.46s-14.23-5.92-14.46-13.71,5.92-14.23,13.71-14.46,14.23,5.92,14.46,13.71Z"/>
      </g>
    </g>
  </g>
  <g id="freepik--Character--inject-26">
    <g>
      <g>
        <g>
          <path class="cls-17" d="M1865.54,2090.13s-49.29-326.01-59.93-405.34c-10.64-79.33,0-119.86,29.96-145.85s169.52-60.53,262.93-63.75c73.04-2.55,110.94,11.76,173.12,175.96l-103.23,44.87s82.55,270.72,72.59,375.82l-375.45,18.28h0Z"/>
          <polygon class="cls-9" points="2149.22 1704.49 2149.22 1704.49 2132.37 1711.31 2106.22 1643.81 2133.94 1739.1 2157.01 1728.91 2149.22 1704.49"/>
        </g>
        <g>
          <path class="cls-17" d="M1835.5,1538.72s-58.58,25.47-81.28,83.07c-11.16,28.32-33.86,79.1-56.03,128.92l172.82,25.77-35.51-237.69v-.07Z"/>
          <path class="cls-22" d="M1712.65,1753.18s-69.67,122.33-48.99,176.04h125.32l4.94-53.86-22.32-13.03,45.62-96.18-104.5-13.03-.08,.07Z"/>
          <path class="cls-9" d="M1771.6,1862.4s-36.48-9.21-63.22,3c0,0,22.25-31.31,67.12-11.16l-3.9,8.17Z"/>
          <path class="cls-9" d="M1792.88,1672.95s-7.27,39.03,1.35,65.25c8.61,26.22,23,28.02,23,28.02l-24.27-93.26h-.07Z"/>
        </g>
        <path class="cls-23" d="M2166.08,1260.95c-9.14-4.05-19.25-5.62-28.24-9.89-19.33-9.29-30.64-29.66-38.65-49.52-8.02-19.93-14.46-41.2-28.77-57.16-13.56-15.13-33.78-24.12-54.16-24.05s-40.45,9.21-53.93,24.5l45.47,163.83c10.79,18.65,27.72,33.78,47.49,42.32,8.31,3.6,17.75,6.07,26.29,3.22,8.61-2.85,15.28-12.66,11.91-21.05,7.12,11.09,23.07,15.36,34.76,9.36,11.69-6.07,17.45-21.57,12.58-33.78,9.44-.22,19.18-.45,27.79-4.34,8.61-3.82,15.96-12.21,15.58-21.65-.45-9.96-9.06-17.83-18.2-21.87l.07,.08Z"/>
        <g>
          <g>
            <path class="cls-23" d="M1808.91,1186.57c-37.83,37.01-23.67,77.46-17.45,107.42,13.03,39.63,18.2,67.94,36.56,105.32l63-257.91c-24.2,9.74-40.98,7.87-82.18,45.17h.07Z"/>
            <path class="cls-23" d="M1863.37,1154.21c38.5-27.57,84.2-12.21,111.39-.6,30.64,17.45,52.29,47.12,59.63,81.65,6.07,32.36,13.48,71.61-3,92.14-9.14,11.84-22.85,19.25-37.75,20.53l-187.87-117.61c12.44-29.81,32.29-56.03,57.61-76.03v-.07Z"/>
            <g>
              <path class="cls-22" d="M1945.92,1564.49c25.84-1.8,23.52-2.62,38.73-12.44,73.79-47.12,41.35-71.31,41.35-71.31-22.62-18.28-17.3-42.7-17.98-83.6-.07-1.2,2.4-21.8,2.1-23-1.05-5.32-6.82,18.43-10.79,14.76-10.41-10.41-27.27-10.41-37.68,0h0l-41.42,20.75h0v1.95c3.97,21.72,7.72,38.43,10.11,51.76,0,1.65,.6,3.3,.82,4.87h0c0,1.65,.45,3.37,.75,4.94,2.4,18.35-20.23,35.73-19.78,60.98-6.74,5.77,8.17,30.41,33.93,30.41l-.15-.07Z"/>
              <path class="cls-10" d="M1920.22,1409.42h0c.07,.67,.07,1.35,0,2.02,3.97,21.72,7.72,38.43,10.11,51.76,.37,1.57,.67,3.22,.82,4.87h0c.22,1.72,.3,3.45,.3,5.17h0c21.95-10.64,40.9-23.97,56.18-41.42,11.54-13.11,18.35-29.74,20-47.19h0c-1.05-5.24-4.87,8.17-8.61,4.34-10.34-10.49-27.19-10.71-37.75-.45l-41.05,20.97v-.07Z"/>
              <path class="cls-22" d="M2009.82,1250.39c12.36,75.13,19.25,106.6-8.61,153.86-42.1,71.09-134.76,71.69-169.22,2.1-30.49-62.7-45.92-174.84,18.13-222.41,64.12-47.57,147.27-8.84,159.71,66.44h0Z"/>
              <path class="cls-22" d="M2057.38,1307.1c-4.57,17.6-16.11,31.01-28.17,37.9-18.2,10.34-37.01-18.35-35.81-39.78,1.12-19.33,17.15-36.33,37.23-37.75,19.78-1.42,31.91,19.55,26.74,39.63Z"/>
              <path class="cls-10" d="M2014.98,1316.46c-.9,0-1.65-.6-1.87-1.5-1.57-7.64,0-15.81,4.27-22.32s11.09-11.16,18.73-12.81c1.05-.22,2.02,.45,2.25,1.42,.22,1.05-.45,2.02-1.42,2.25-6.67,1.42-12.66,5.47-16.41,11.16-3.75,5.69-5.09,12.81-3.75,19.48,.22,1.05-.45,2.02-1.42,2.25h-.37v.07Z"/>
              <g>
                <g>
                  <path class="cls-23" d="M1920.75,1299.76c1.8,7.94-.67,15.51-5.47,16.93-4.87,1.42-10.19-3.82-11.99-11.69-1.8-7.94,.67-15.51,5.47-16.93,4.87-1.42,10.19,3.82,11.99,11.69Z"/>
                  <path class="cls-23" d="M1847.79,1319.68c1.72,7.72-.75,15.06-5.62,16.56-4.79,1.42-10.11-3.6-11.84-11.31-1.72-7.72,.75-15.06,5.62-16.56,4.79-1.42,10.11,3.6,11.84,11.31Z"/>
                  <path class="cls-23" d="M1928.61,1268.22c-.9,.37-1.95,.37-2.85-.15-14.31-7.42-26.07-.15-26.22,0-1.72,1.05-3.97,.52-4.94-1.27s-.3-4.19,1.42-5.32c.6-.37,15.43-9.51,33.18-.3,1.8,.9,2.47,3.22,1.5,5.17-.45,.9-1.2,1.57-2.1,1.95v-.07Z"/>
                  <path class="cls-23" d="M1813.03,1289.42c-.82,0-1.57-.45-2.17-1.12-1.12-1.5-.9-3.82,.52-5.24,14.23-14.16,28.77-10.41,29.44-10.26,1.72,.45,2.7,2.47,2.1,4.49-.6,2.02-2.4,3.22-4.19,2.77-.6-.15-11.91-2.85-23.22,8.39-.75,.75-1.65,1.05-2.47,1.05v-.07Z"/>
                  <path class="cls-13" d="M1866.66,1310.62s-3.9,30.86-12.14,51.76c-1.42,3.67,1.2,7.64,5.09,8.02,10.04,.82,19.93-5.17,19.93-5.17l-12.81-54.53-.07-.07Z"/>
                </g>
                <path class="cls-23" d="M1911.61,1287.55l-18.05,.67s12.81,10.11,18.05-.67Z"/>
                <path class="cls-23" d="M1837.75,1308.07l-18.05,.67s12.81,10.11,18.05-.67Z"/>
              </g>
            </g>
            <path class="cls-23" d="M1989.74,1272.34s-51.91-40.83-61.13-82.33c0,0-162.63,9.29-123.75,138.66,0,0-51.24-122.48,70.27-164.58,121.5-42.1,177.91,116.26,131.99,183.75-.3-.52,14.83-49.89-17.38-75.51h0Z"/>
          </g>
          <path class="cls-23" d="M2027.57,1265.22c-11.54-50.04-39.25-84.72-77.38-93.49-51.61-11.84-112.51,1.8-112.51,1.8-.6,14.98-29.81,60.45-30.64,75.66,14.01-3.22,55.13-33.93,67.72-40.6l-8.46,11.09s22.4-3.9,33.26-18.2c24.57,61.2,106.82,63.67,128.02,63.67v.07Z"/>
          <path class="cls-17" d="M1937.98,1142.15s36.56,3.07,57.01,27.19c0-.22-19.7-33.04-57.01-27.19Z"/>
          <path class="cls-23" d="M1906.66,1386.5c-.82,0-1.57-.37-2.17-.97-.97-1.2-.82-3,.37-3.97l3-2.47c7.72-6.37,15.73-12.96,20.23-21.87,.67-1.35,2.4-1.95,3.75-1.2,1.35,.67,1.95,2.4,1.2,3.75-5.09,9.89-13.93,17.15-21.65,23.6l-2.92,2.47c-.52,.45-1.2,.67-1.8,.67h0Z"/>
        </g>
        <path class="cls-23" d="M1912.51,1506.66s-42.85,69.74,34.46,67.42c77.31-2.32,100.45-75.88,103.9-96.26l-24.12-8.31s-13.93,59.93-66.22,71.84c-52.29,11.91-40-41.72-40-41.72l-8.02,7.04h0Z"/>
        <g>
          <path class="cls-22" d="M2250.12,1660.15s43.37,124.27,48.09,158.58c1.87,13.33,15.43,46.74-26.07,76.18-36.41,25.77-298.44,34.31-298.44,34.31l-7.64-67.04,215.36-56.48-32.21-101.28,100.83-44.35,.07,.07Z"/>
          <g>
            <path class="cls-22" d="M1980,1859.55s-39.55-31.09-41.2-31.61-49.74-2.85-56.48,2.85c-6.74,5.69-11.31,31.61-11.31,31.61,0,0-18.05,6.74-21.5,15.81-3.45,9.06,3.37,16.93,3.37,16.93,0,0-3.97,9.59,2.25,17.53l6.22,7.94s-6.22,7.34-.6,12.96c5.62,5.62,132.37-4.27,132.37-4.27l-13.26-69.74h.15Z"/>
            <path class="cls-9" d="M1871.01,1862.4l55.06-9.21s-24.8-3.82-37.98,0c-13.18,3.82-17.08,9.21-17.08,9.21Z"/>
            <path class="cls-23" d="M1935.5,1781.35l-28.91,75.58c-5.92-1.2-12.88,2.85-16.63,2.32l31.91-83.6c1.57-3.82,5.99-5.62,9.81-4.05s5.62,5.99,4.05,9.81h-.22v-.07Z"/>
          </g>
          <path class="cls-9" d="M2181.43,1805.84s47.19,2.17,54.08,29.74c0,0-.15-44.12-57.61-40.75l3.52,11.09v-.07Z"/>
        </g>
        <g>
          <path class="cls-22" d="M1793.93,1875.44s88.84-6.44,109.74,10.64,40.15,46.14,40.15,46.14l-159.26-2.92,9.36-53.86h0Z"/>
          <path class="cls-9" d="M1843.89,1874.39s-5.99,24.8,4.64,42.4c3.45,5.69-4.05,11.39-1.57,13.63l23.97,.45-19.1-56.48h-7.94Z"/>
        </g>
      </g>
      <g>
        <polygon class="cls-22" points="1469.42 2933.91 1479.46 2875.03 1598.86 2883.64 1566.2 2969.11 1495.34 2971.51 1469.42 2933.91"/>
        <g>
          <path class="cls-17" d="M1457.36,2924.02h31.39c7.12,0,13.63,3.6,17.83,9.29,18.13,24.72,31.69,15.36,51.39-7.87,12.51-1.42,15.88,12.88,16.93,16.78l23.45,85.32c2.02,7.12-2.1,14.53-9.21,16.63-1.27,.37-2.55,.52-3.9,.52h-248.62c-39.55,0-47.72-39.85-31.46-43.52,73.26-16.18,125.1-37.75,147.8-59.03,4.19-3.75-.15-6.52,4.42-18.05v-.07Z"/>
          <path class="cls-2" d="M1463.57,2970.99c-.6,0-1.2-.3-1.57-.9-5.54-8.76-14.98-14.91-25.32-16.33-1.05-.15-1.72-1.12-1.57-2.1,.15-1.05,1.05-1.65,2.1-1.57,11.39,1.57,21.87,8.31,28.02,18.05,.52,.9,.3,2.02-.6,2.55-.3,.22-.67,.3-.97,.3h-.07Z"/>
          <path class="cls-2" d="M1442.75,2981.92c-.6,0-1.2-.3-1.57-.9-5.54-8.76-14.98-14.91-25.32-16.33-1.05-.15-1.72-1.12-1.57-2.1,.15-1.05,1.12-1.72,2.1-1.57,11.39,1.57,21.87,8.31,28.02,18.05,.52,.9,.3,2.02-.6,2.55-.3,.22-.67,.3-.97,.3h-.07Z"/>
          <path class="cls-2" d="M1418.48,2994.28c-.6,0-1.2-.3-1.57-.9-5.54-8.76-14.98-14.91-25.32-16.33-1.05-.15-1.72-1.12-1.57-2.1,.15-1.05,1.12-1.72,2.1-1.57,11.39,1.57,21.87,8.31,28.02,18.05,.52,.9,.3,2.02-.6,2.55-.3,.22-.67,.3-.97,.3h-.07Z"/>
        </g>
        <polygon class="cls-22" points="1500.73 2751.28 1474.89 2697.42 1577.36 2635.39 1600.06 2724.09 1543.65 2766.93 1500.73 2751.28"/>
        <g>
          <path class="cls-17" d="M1485.22,2750.15l25.62-18.13c5.77-4.12,13.26-4.94,20-2.7,29.06,9.74,34.76-5.77,37.38-36.11,9.36-8.39,20.45,1.35,23.45,3.9l68.47,56.11c5.77,4.64,6.74,13.11,2.1,18.88-.82,1.05-1.8,1.95-2.85,2.7-31.09,22.02-45.84,32.44-84.5,59.85l-118.36,83.82c-32.29,22.85-62.03-4.94-50.86-17.38,50.41-55.58,80.3-103.15,86.45-133.56,1.27-5.47-3.9-5.24-6.82-17.3l-.07-.07Z"/>
          <path class="cls-2" d="M1484.62,2786.63c-.67,0-1.35-.37-1.65-.97-.45-.9-.15-2.02,.82-2.55,10.19-5.32,22.62-5.84,33.26-1.42,.97,.37,1.42,1.5,1.05,2.47-.37,.97-1.5,1.42-2.47,.97-9.59-3.97-20.82-3.52-30.11,1.35-.3,.15-.6,.22-.9,.22v-.07Z"/>
          <path class="cls-2" d="M1473.99,2807.61c-.67,0-1.35-.37-1.65-.97-.45-.9-.15-2.02,.82-2.55,10.19-5.32,22.62-5.84,33.26-1.5,.97,.37,1.42,1.5,1.05,2.47-.37,.97-1.5,1.42-2.47,1.05-9.59-3.97-20.9-3.52-30.11,1.35-.3,.15-.6,.22-.9,.22v-.07Z"/>
          <path class="cls-2" d="M1461.33,2831.73c-.67,0-1.35-.37-1.65-.97-.45-.9-.15-2.02,.82-2.55,10.19-5.32,22.62-5.84,33.26-1.42,.97,.37,1.42,1.5,1.05,2.47s-1.5,1.42-2.47,.97c-9.59-3.97-20.82-3.52-30.11,1.35-.3,.15-.6,.22-.9,.22v-.07Z"/>
        </g>
        <path class="cls-23" d="M1868.24,2065.33s-378.67-51.69-493.05,55.88c0,0-88.62,56.18-54.53,245.48,22.32,116.86,88.47,267.58,159.41,363.09l99.4-84.5s-55.06-233.27-58.5-352.75l137.53-8.17,197.24-134.84,20.68-55.88-8.17-28.32Z"/>
        <path class="cls-9" d="M1535.56,2291.71s-10.04-35.66-.52-79.1c9.59-43.45,34.61-86,170.12-103.3,135.44-17.38-155.14,182.4-155.14,182.4h-14.46Z"/>
        <path class="cls-23" d="M2240.46,2061.21s10.49,107.87-23.75,186.82-155.21,107.87-236.79,102.63c-81.58-5.24-186.82-11.99-231.55,.6,0,0-57.91,328.33-157.91,567.74l-121.05-10.49s65.77-463.39,76.33-571.04c10.56-107.64,5.24-123.68,71.01-176.26,65.77-52.59,402.64-123.68,623.7-100h0Z"/>
        <path class="cls-9" d="M1535.56,2424.07l-39.18,291.85s-1.12-154.16,1.65-200.91c3.37-56.33,37.53-90.94,37.53-90.94h0Z"/>
      </g>
      <g>
        <path class="cls-23" d="M1653.7,3029.79c-.75,0-1.57-.07-2.32-.22-6.07-1.27-9.96-7.27-8.69-13.33l132.59-627.22c1.12-5.17,5.69-8.91,11.01-8.91h449.61c5.54,0,10.26,4.05,11.09,9.44l99.55,627.22c.97,6.14-3.22,11.91-9.36,12.88-6.22,.97-11.91-3.22-12.88-9.36l-97.98-617.7h-430.88l-130.72,618.3c-1.12,5.32-5.77,8.91-11.01,8.91h0Z"/>
        <path class="cls-4" d="M1653.7,3029.79c-.75,0-1.57-.07-2.32-.22-6.07-1.27-9.96-7.27-8.69-13.33l132.59-627.22c1.12-5.17,5.69-8.91,11.01-8.91h449.61c5.54,0,10.26,4.05,11.09,9.44l99.55,627.22c.97,6.14-3.22,11.91-9.36,12.88-6.22,.97-11.91-3.22-12.88-9.36l-97.98-617.7h-430.88l-130.72,618.3c-1.12,5.32-5.77,8.91-11.01,8.91h0Z"/>
        <path class="cls-17" d="M2247.13,2391.34h-471.48c-13.03,0-23.6-10.56-23.6-23.6h0c0-13.03,10.56-23.6,23.6-23.6h471.48c13.03,0,23.6,10.56,23.6,23.6h0c0,13.03-10.56,23.6-23.6,23.6Z"/>
      </g>
      <g>
        <rect class="cls-23" x="2095.74" y="1983.01" width="322.86" height="141.43"/>
        <rect class="cls-7" x="2095.74" y="1983.01" width="322.86" height="141.43"/>
        <g>
          <rect class="cls-23" x="1060.56" y="1968.1" width="1013" height="156.34"/>
          <rect class="cls-7" x="1060.56" y="1968.1" width="1013" height="156.34"/>
          <rect class="cls-23" x="2073.56" y="1956.11" width="37.53" height="1062.44"/>
          <rect class="cls-4" x="2073.56" y="1956.11" width="37.53" height="1062.44"/>
          <rect class="cls-23" x="2403.69" y="1956.11" width="37.53" height="1062.44"/>
          <rect class="cls-4" x="2403.69" y="1956.11" width="37.53" height="1062.44"/>
          <rect class="cls-23" x="1041.83" y="1956.11" width="37.53" height="1062.44"/>
          <rect class="cls-4" x="1041.83" y="1956.11" width="37.53" height="1062.44"/>
          <g>
            <rect class="cls-23" x="1004.98" y="1929.22" width="1448.3" height="53.71"/>
            <rect class="cls-4" x="1004.98" y="1929.22" width="1448.3" height="53.71"/>
          </g>
        </g>
      </g>
      <g>
        <rect class="cls-17" x="1573.69" y="1916.64" width="416.12" height="14.23"/>
        <rect class="cls-4" x="1573.69" y="1916.64" width="416.12" height="14.23"/>
      </g>
    </g>
  </g>
</svg>